<svg width="118" height="118" viewBox="0 0 118 118" fill="none" xmlns="http://www.w3.org/2000/svg">
<rect width="118" height="118" rx="16" fill="#1E2235"/>
<path d="M96.3559 29.4243L64.8305 10.6955C61.1017 8.49212 56.4407 8.49212 52.6271 10.6955L21.1017 29.4243C17.3729 31.6277 15 35.7802 15 40.2718V77.7294C15 82.2209 17.2881 86.2887 21.1017 88.5768L52.6271 107.306C54.4915 108.407 56.6102 109.001 58.7288 109.001C60.8474 109.001 62.9661 108.407 64.8305 107.306L96.3559 88.5768C100.085 86.3735 102.458 82.2209 102.458 77.7294V40.187C102.458 35.7802 100.169 31.6277 96.3559 29.4243Z" fill="white"/>
<path d="M96.3559 29.4237L64.8305 10.6949C62.9661 9.59322 60.8474 9 58.7288 9C56.6102 9 54.4915 9.59322 52.6271 10.6949L21.1017 29.4237C17.3729 31.6271 15 35.7796 15 40.2712V77.7288C15 82.2203 17.2881 86.2881 21.1017 88.5762L52.6271 107.305C54.4915 108.407 56.6102 109 58.7288 109C60.8474 109 62.9661 108.407 64.8305 107.305L96.3559 88.5762C100.085 86.3729 102.458 82.2203 102.458 77.7288V40.1864C102.458 35.7796 100.169 31.6271 96.3559 29.4237ZM53.7288 105.271L22.2034 86.5423C19.1525 84.6779 17.2034 81.2881 17.2034 77.644V40.1864C17.2034 36.5424 19.1525 33.0678 22.2034 31.2881L53.7288 12.5593C55.2542 11.6271 56.9491 11.2034 58.7288 11.2034C60.5085 11.2034 62.2034 11.7119 63.7288 12.5593L95.2542 31.2881C97.8813 32.8135 99.5762 35.5254 100.085 38.4915C99.0678 36.2881 96.6949 35.6102 93.8983 37.2203L64.1525 55.6949C60.4237 57.8983 57.7118 60.2712 57.7118 64.7627V101.542C57.7118 104.254 58.8135 105.949 60.4237 106.458C59.9152 106.542 59.322 106.627 58.7288 106.627C57.0339 106.712 55.2542 106.203 53.7288 105.271Z" fill="#2A3238"/>
<path d="M88.1354 81.2896L80.254 85.9506C80.0845 86.0354 79.915 86.2048 79.915 86.4591V88.493C79.915 88.7472 80.0845 88.832 80.254 88.7472L88.2201 83.9167C88.3896 83.832 88.4744 83.5777 88.4744 83.3235V81.5438C88.4744 81.2896 88.3049 81.2048 88.1354 81.2896Z" fill="#4DA925"/>
<path d="M71.3557 64.0001C71.61 63.8306 71.7795 64.0001 71.8642 64.3391V67.0509C72.9659 66.6272 73.9829 66.4577 74.9151 66.712C75.0846 66.7967 75.1693 67.0509 75.0846 67.3052L74.4913 69.6781C74.4066 69.8475 74.3218 70.017 74.2371 70.1865C74.1524 70.2713 74.1524 70.2713 74.0676 70.2713C73.9829 70.2713 73.8981 70.356 73.8134 70.2713C73.3896 70.1865 72.4574 69.9323 70.932 70.7797C69.3218 71.6272 68.7286 72.9831 68.8134 74.0001C68.8134 75.2713 69.4913 75.6103 71.61 75.6103C74.4913 75.695 75.7625 76.9662 75.8473 79.8475C75.8473 82.7289 74.3218 85.8645 71.949 87.7289L72.0337 90.4408C72.0337 90.7797 71.8642 91.1187 71.61 91.2882L69.9998 92.2204C69.7456 92.3899 69.5761 92.2204 69.4913 91.8814V89.2543C68.1354 89.8475 66.7795 89.9323 65.8473 89.5933C65.6778 89.5086 65.593 89.2543 65.6778 89.0001L66.271 86.5424C66.3557 86.373 66.4405 86.1187 66.5252 86.034C66.61 85.9492 66.61 85.9492 66.6947 85.9492C66.7795 85.8645 66.8642 85.8645 66.949 85.9492C67.8812 86.2882 69.1524 86.1187 70.254 85.5255C71.7795 84.7628 72.7117 83.2374 72.7117 81.7119C72.7117 80.356 71.949 79.7628 70.1693 79.7628C67.8812 79.7628 65.7625 79.3391 65.6778 75.9492C65.6778 73.1526 67.1185 70.2713 69.4066 68.4916V65.7797C69.4066 65.4408 69.5761 65.1018 69.8303 64.9323L71.3557 64.0001Z" fill="white"/>
</svg>
