<svg width="118" height="118" viewBox="0 0 118 118" fill="none" xmlns="http://www.w3.org/2000/svg">
<rect width="118" height="118" rx="16" fill="#1E2235"/>
<path d="M15.9857 17.0002C15.5555 16.9947 15.1292 17.0836 14.7369 17.2609C14.3446 17.4383 13.9958 17.6996 13.7149 18.0265C13.434 18.3535 13.2278 18.7382 13.1109 19.1537C12.994 19.5691 12.9691 20.0052 13.0381 20.4313L25.5512 96.643C25.707 97.5756 26.1855 98.4234 26.9024 99.0372C27.6194 99.6511 28.529 99.9919 29.4716 99.9998H89.5014C90.2078 100.009 90.894 99.7629 91.435 99.307C91.9759 98.851 92.3356 98.2153 92.4486 97.5155L104.962 20.4461C105.031 20.02 105.006 19.584 104.889 19.1686C104.772 18.7532 104.566 18.3686 104.285 18.0417C104.004 17.7148 103.655 17.4535 103.263 17.2763C102.87 17.0991 102.444 17.0101 102.014 17.0158L15.9857 17.0002ZM68.6757 72.0816H49.5156L44.3277 44.8885H73.3184L68.6757 72.0816Z" fill="#2684FF"/>
<path d="M101 45H73.3699L68.7326 72.1385H49.596L27 99.026C27.7162 99.6467 28.6293 99.9919 29.576 99.9998H89.5479C90.2536 100.009 90.939 99.7636 91.4794 99.3086C92.0198 98.8535 92.3792 98.2191 92.4921 97.5207L101 45Z" fill="url(#paint0_linear_129_336)"/>
<defs>
<linearGradient id="paint0_linear_129_336" x1="107.388" y1="52.5999" x2="75.3651" y2="97.9565" gradientUnits="userSpaceOnUse">
<stop offset="0.18" stop-color="#0052CC"/>
<stop offset="1" stop-color="#2684FF"/>
</linearGradient>
</defs>
</svg>
