<svg width="118" height="118" viewBox="0 0 118 118" fill="none" xmlns="http://www.w3.org/2000/svg">
<g id="clickhouse">
<g id="Tech Stack Logos">
<rect width="118" height="118" rx="16" fill="#1E2235"/>
</g>
<g id="clickhouse_2">
<path id="Vector" d="M21.2461 12H13.0871C12.4869 12 12.0002 12.4866 12.0002 13.0869V103.913C12.0002 104.513 12.4869 105 13.0871 105H21.2461C21.8464 105 22.333 104.513 22.333 103.913V13.0869C22.333 12.4866 21.8464 12 21.2461 12Z" fill="#FAFF69"/>
<path id="Vector_2" d="M41.9121 12H33.7531C33.1529 12 32.6663 12.4866 32.6663 13.0869V103.913C32.6663 104.513 33.1529 105 33.7531 105H41.9121C42.5124 105 42.999 104.513 42.999 103.913V13.0869C42.999 12.4866 42.5124 12 41.9121 12Z" fill="#FAFF69"/>
<path id="Vector_3" d="M62.5784 12H54.4194C53.8191 12 53.3325 12.4866 53.3325 13.0869V103.913C53.3325 104.513 53.8191 105 54.4194 105H62.5784C63.1787 105 63.6653 104.513 63.6653 103.913V13.0869C63.6653 12.4866 63.1787 12 62.5784 12Z" fill="#FAFF69"/>
<path id="Vector_4" d="M83.2403 12H75.0813C74.481 12 73.9944 12.4866 73.9944 13.0869V103.913C73.9944 104.513 74.481 105 75.0813 105H83.2403C83.8405 105 84.3271 104.513 84.3271 103.913V13.0869C84.3271 12.4866 83.8405 12 83.2403 12Z" fill="#FAFF69"/>
<path id="Vector_5" d="M103.913 48.168H95.7541C95.1538 48.168 94.6672 48.6546 94.6672 49.2549V67.7477C94.6672 68.348 95.1538 68.8347 95.7541 68.8347H103.913C104.513 68.8347 105 68.348 105 67.7477V49.2549C105 48.6546 104.513 48.168 103.913 48.168Z" fill="#FAFF69"/>
</g>
</g>
</svg>
