<svg width="118" height="118" viewBox="0 0 118 118" fill="none" xmlns="http://www.w3.org/2000/svg">
<rect width="118" height="118" rx="16" fill="#1E2235"/>
<path d="M14.4941 83.2414C13.4586 84.8727 12.4422 86.5159 11.4451 88.1708C10.5773 89.6195 11.0112 91.5045 12.4614 92.3754L32.341 104.555C33.7927 105.424 35.676 104.987 36.5475 103.539C37.4809 101.876 38.4484 100.232 39.4494 98.6081C47.2874 85.7072 55.2658 87.156 69.4849 93.9718L89.2211 103.246C90.8154 103.973 92.5591 103.246 93.282 101.797L102.717 80.4893C103.439 79.0368 102.717 77.1556 101.261 76.4286C97.0546 74.5429 88.7872 70.6276 81.531 67.0053C54.6886 54.1 31.9041 54.9709 14.4956 83.2414H14.4941Z" fill="url(#paint0_linear_132_12689)"/>
<path d="M103.504 34.7883C104.54 33.1548 105.556 31.5093 106.554 29.8522C107.425 28.4015 106.987 26.5139 105.537 25.6419L85.6571 13.4461C84.2062 12.5755 82.3221 13.0131 81.4506 14.463C80.5189 16.1294 79.5517 17.7757 78.5494 19.4006C70.7106 32.3191 62.7322 30.8684 48.5131 24.0433L28.7769 14.7565C27.1825 14.0285 25.4433 14.7565 24.716 16.2072L15.2851 37.5442C14.5585 38.9986 15.2851 40.8869 16.7361 41.6104C20.9426 43.4987 29.2145 47.4193 36.4663 51.0465C63.314 63.8254 86.094 63.0967 103.503 34.7883H103.504Z" fill="url(#paint1_linear_132_12689)"/>
<defs>
<linearGradient id="paint0_linear_132_12689" x1="102.239" y1="110.863" x2="42.2386" y2="76.3602" gradientUnits="userSpaceOnUse">
<stop stop-color="#0052CC"/>
<stop offset="0.918" stop-color="#2380FB"/>
<stop offset="1" stop-color="#2684FF"/>
</linearGradient>
<linearGradient id="paint1_linear_132_12689" x1="15.7589" y1="7.08926" x2="75.8001" y2="41.5727" gradientUnits="userSpaceOnUse">
<stop stop-color="#0052CC"/>
<stop offset="0.918" stop-color="#2380FB"/>
<stop offset="1" stop-color="#2684FF"/>
</linearGradient>
</defs>
</svg>
