<svg width="118" height="118" viewBox="0 0 118 118" fill="none" xmlns="http://www.w3.org/2000/svg">
<rect width="118" height="118" rx="16" fill="#1E2235"/>
<path d="M20.6 103H67.3064C69.5464 103 71.5712 101.665 72.4536 99.6064L94.5472 48.0568C94.8456 47.3599 95 46.6088 95 45.8505V20.6C95 17.5072 92.4928 15 89.4 15H64.6968C63.5905 15 62.5089 15.328 61.588 15.9424L17.4936 45.3711C15.9368 46.4104 15.0024 48.1576 15.0024 50.0288L15 97.4C15 100.493 17.5072 103 20.6 103Z" fill="url(#paint0_linear_133_12690)"/>
<path d="M83.0397 95H97.401C100.493 95 103 92.4928 103 89.4V71.3976C103 71.1329 102.981 70.8681 102.944 70.6056L95.6885 19.808C95.2942 17.0488 92.9323 15 90.1455 15H68.599C65.5059 15 62.9992 17.508 63 20.6016L63.0065 46.0921C63.0065 46.6936 63.1032 47.2912 63.2935 47.8615L77.7277 91.1712C78.49 93.4577 80.6297 95 83.0397 95Z" fill="url(#paint1_linear_133_12690)"/>
<path d="M81.0721 95L97.4008 94.9977C100.494 94.9977 103 92.4905 103 89.3977V73.5761C103 71.9416 102.286 70.388 101.045 69.3241L48.5734 24.348C47.5581 23.4784 46.2653 23 44.9286 23H28.5999C25.5072 23 23 25.5072 23 28.6V44.424C23 46.0585 23.7144 47.612 24.9552 48.6761L77.4258 93.6513C78.441 94.5216 79.7346 95 81.0721 95Z" fill="#FF43F2"/>
<path d="M87 32H32V87H87V32Z" fill="black"/>
<path fill-rule="evenodd" clip-rule="evenodd" d="M46.2669 39H38V60H46.2669C48.3243 60 50.1648 59.5499 51.7885 58.6501C53.4221 57.75 54.6992 56.5054 55.6199 54.9152C56.5396 53.3153 57 51.5097 57 49.5C57 47.4903 56.5396 45.6904 55.6199 44.1001C54.6992 42.5003 53.4221 41.2499 51.7885 40.3499C50.1648 39.4501 48.3243 39 46.2669 39ZM49.6172 55.6198C48.6451 56.1799 47.5134 56.4595 46.2204 56.4595L42.2345 56.4604V42.5405H46.2204C47.5125 42.5405 48.6451 42.8193 49.6172 43.3802C50.5894 43.9403 51.3389 44.7446 51.8666 45.7948C52.3942 46.8354 52.6575 48.0697 52.6575 49.5C52.6575 50.9303 52.3942 52.1693 51.8666 53.2196C51.3389 54.2603 50.5894 55.0589 49.6172 55.6198Z" fill="white"/>
<path d="M63.2503 58.6365C64.8853 59.5447 66.7105 60 68.726 60C70.6617 60 72.4065 59.5843 73.961 58.7522C75.5251 57.9201 76.754 56.785 77.6462 55.3437C78.5488 53.894 79 52.2748 79 50.4855V48.8905H70.0799V52.0083H74.9767C74.8761 52.7609 74.5927 53.4476 74.1262 54.068C73.5749 54.8022 72.8279 55.3788 71.8851 55.7937C70.9518 56.2093 69.9091 56.4175 68.7558 56.4175C67.5124 56.4175 66.3898 56.1184 65.3865 55.5186C64.3832 54.9188 63.5959 54.0976 63.0245 53.0533C62.4637 52.0005 62.1825 50.8149 62.1825 49.5004C62.1825 48.1858 62.4629 47.0056 63.0245 45.9614C63.5968 44.9078 64.3841 44.0812 65.3865 43.4814C66.3891 42.8816 67.5124 42.5825 68.7558 42.5825C69.5988 42.5825 70.3861 42.713 71.1178 42.974C71.8504 43.2258 72.487 43.5886 73.0286 44.0618C73.5805 44.5257 74.0166 45.0772 74.3373 45.7152H78.73C78.3489 44.3904 77.6815 43.2211 76.7291 42.2056C75.7862 41.1902 74.6225 40.4015 73.2389 39.8413C71.8649 39.2812 70.3612 39 68.726 39C66.7098 39 64.8853 39.4584 63.2503 40.3775C61.6151 41.2857 60.3314 42.5435 59.3991 44.148C58.4667 45.7431 58 47.5269 58 49.4996C58 51.4723 58.4667 53.2616 59.3991 54.866C60.3322 56.461 61.616 57.7174 63.2503 58.6365Z" fill="white"/>
<path d="M38 76H60V80H38V76Z" fill="white"/>
<defs>
<linearGradient id="paint0_linear_133_12690" x1="97.1944" y1="20.4752" x2="16.4752" y2="101.194" gradientUnits="userSpaceOnUse">
<stop offset="0.28" stop-color="#7256FF"/>
<stop offset="0.66" stop-color="#00D980"/>
</linearGradient>
<linearGradient id="paint1_linear_133_12690" x1="103.986" y1="92.5209" x2="69.2767" y2="17.6703" gradientUnits="userSpaceOnUse">
<stop offset="0.3" stop-color="#FF43F2"/>
<stop offset="0.54" stop-color="#7256FF"/>
</linearGradient>
</defs>
</svg>
