<svg width="118" height="118" viewBox="0 0 118 118" fill="none" xmlns="http://www.w3.org/2000/svg">
<rect width="118" height="118" rx="16" fill="#1E2235"/>
<path fill-rule="evenodd" clip-rule="evenodd" d="M58.9784 109V89.6204C79.4913 89.6204 95.4146 69.278 87.5372 47.6879C86.0905 43.7215 83.7942 40.1195 80.809 37.134C77.8238 34.1484 74.222 31.8517 70.2559 30.4045C48.6658 22.5853 28.3234 38.4504 28.3234 58.9634H9C9 26.2702 40.6199 0.770478 74.9017 11.4783C89.8621 16.1843 101.818 28.0816 106.465 43.0441C117.175 77.3801 91.7316 109 58.9784 109Z" fill="#0080FF"/>
<path fill-rule="evenodd" clip-rule="evenodd" d="M39.7694 89.6755H59.0346V70.4102H39.7714L39.7694 89.6755ZM24.9233 104.522H39.7674V89.6775H24.9233V104.522ZM12.5125 89.6775H24.9233V77.2646H12.5125V89.6775Z" fill="#0080FF"/>
</svg>
