<svg width="118" height="118" viewBox="0 0 118 118" fill="none" xmlns="http://www.w3.org/2000/svg">
<rect width="118" height="118" rx="16" fill="#1E2235"/>
<path d="M108.014 50.0885C107.743 49.8731 105.211 47.9614 99.8713 47.9614C98.4615 47.9675 97.0546 48.0884 95.6643 48.323C94.6309 41.2398 88.7748 37.7864 88.5123 37.6315L87.0785 36.8047L86.1355 38.1654C84.9546 39.9933 84.0925 42.0083 83.5865 44.1248C82.6305 48.1681 83.2118 51.9657 85.2657 55.2124C82.7855 56.5946 78.8069 56.9348 78.0018 56.9649H12.1303C10.4097 56.9673 9.01358 58.3577 9.0042 60.0781C8.92737 65.8488 9.90506 71.5851 11.8891 77.0045C14.1583 82.9553 17.5342 87.3387 21.9262 90.0212C26.8478 93.0353 34.8439 94.7577 43.9077 94.7577C48.0024 94.7706 52.0893 94.4 56.115 93.6511C61.711 92.6236 67.0959 90.6677 72.0468 87.8639C76.1262 85.5015 79.7976 82.4963 82.9192 78.9636C88.1379 73.0559 91.2469 66.4765 93.559 60.6292H94.4805C100.194 60.6292 103.708 58.3427 105.646 56.4267C106.933 55.2046 107.939 53.716 108.591 52.0648L109 50.8678L108.014 50.0885Z" fill="#2496ED"/>
<path d="M18.236 55.0373H27.0631C27.4888 55.0373 27.8338 54.6922 27.8338 54.2666V46.4039C27.8362 45.9782 27.493 45.6313 27.0674 45.6289C27.066 45.6289 27.0645 45.6289 27.0631 45.6289H18.236C17.8103 45.6289 17.4653 45.974 17.4653 46.3996V46.4039V54.2665C17.4653 54.6922 17.8103 55.0373 18.236 55.0373V55.0373Z" fill="#2496ED"/>
<path d="M30.4002 55.0373H39.2272C39.653 55.0373 39.998 54.6922 39.998 54.2666V46.4039C40.0003 45.9782 39.6572 45.6313 39.2314 45.6289C39.23 45.6289 39.2285 45.6289 39.2271 45.6289H30.4C29.9719 45.6289 29.625 45.9758 29.625 46.4039V54.2665C29.6275 54.6929 29.9738 55.0373 30.4002 55.0373" fill="#2496ED"/>
<path d="M42.7494 55.0373H51.5764C52.0022 55.0373 52.3471 54.6922 52.3471 54.2666V46.4039C52.3495 45.9782 52.0064 45.6313 51.5806 45.6289C51.5792 45.6289 51.5777 45.6289 51.5763 45.6289H42.7492C42.3235 45.6289 41.9785 45.974 41.9785 46.3996V46.4039V54.2665C41.9787 54.6922 42.3238 55.0373 42.7494 55.0373V55.0373Z" fill="#2496ED"/>
<path d="M54.9523 55.0373H63.7794C64.2058 55.0373 64.5521 54.693 64.5545 54.2666V46.4039C64.5545 45.9758 64.2075 45.6289 63.7794 45.6289H54.9523C54.5266 45.6289 54.1816 45.974 54.1816 46.3996V46.4039V54.2665C54.1816 54.6922 54.5268 55.0373 54.9523 55.0373V55.0373Z" fill="#2496ED"/>
<path d="M30.4 43.7247H39.2271C39.6534 43.7223 39.9978 43.3759 39.9978 42.9496V35.0871C39.9978 34.6614 39.6527 34.3164 39.2271 34.3164H30.4C29.9738 34.3164 29.6274 34.6607 29.625 35.0871V42.9496C29.6274 43.3768 29.9729 43.7223 30.4 43.7247Z" fill="#2496ED"/>
<path d="M42.7492 43.7247H51.5763C52.0026 43.7223 52.347 43.3759 52.347 42.9496V35.0871C52.347 34.6614 52.0019 34.3164 51.5763 34.3164H42.7492C42.3235 34.3164 41.9785 34.6615 41.9785 35.0871V42.9496C41.9785 43.3759 42.3229 43.7223 42.7492 43.7247Z" fill="#2496ED"/>
<path d="M54.9523 43.7247H63.7794C64.2065 43.7223 64.5521 43.3768 64.5545 42.9496V35.0871C64.5521 34.6607 64.2058 34.3164 63.7794 34.3164H54.9523C54.5266 34.3164 54.1816 34.6615 54.1816 35.0871V42.9496C54.1816 43.3759 54.5261 43.7223 54.9523 43.7247Z" fill="#2496ED"/>
<path d="M54.9523 32.4084H63.7794C64.2058 32.4084 64.5521 32.064 64.5545 31.6377V23.7707C64.5521 23.3443 64.2058 23 63.7794 23H54.9523C54.5266 23 54.1816 23.345 54.1816 23.7707V31.6376C54.1816 32.0633 54.5268 32.4084 54.9523 32.4084Z" fill="#2496ED"/>
<path d="M67.2629 55.0373H76.09C76.5164 55.0373 76.8626 54.693 76.865 54.2666V46.4039C76.865 45.9758 76.5181 45.6289 76.09 45.6289H67.2629C66.8373 45.6289 66.4922 45.974 66.4922 46.3996V46.4039V54.2665C66.4922 54.6922 66.8373 55.0373 67.2629 55.0373" fill="#2496ED"/>
</svg>
