<svg width="118" height="118" viewBox="0 0 118 118" fill="none" xmlns="http://www.w3.org/2000/svg">
<rect width="118" height="118" rx="16" fill="#1E2235"/>
<path d="M109 61.1978C109 52.8292 103.802 45.475 95.9824 42.6434C96.3207 40.8681 96.4898 39.0929 96.4898 37.2756C96.4898 21.6797 83.8102 9 68.2565 9C59.1271 9 50.6739 13.3533 45.3485 20.7075C42.728 18.6788 39.516 17.5799 36.177 17.5799C27.8929 17.5799 21.1727 24.3001 21.1727 32.5841C21.1727 34.4016 21.5108 36.1768 22.1025 37.825C14.3257 40.6146 9.00024 48.0955 9.00024 56.4218C9.00024 64.8326 14.2412 72.1868 22.0603 75.0188C21.7222 76.7516 21.5531 78.569 21.5531 80.3863C21.5531 95.9401 34.1906 108.577 49.7442 108.577C58.8736 108.577 67.3266 104.182 72.6097 96.8275C75.2302 98.8986 78.4424 100.04 81.7814 100.04C90.0653 100.04 96.7856 93.3196 96.7856 85.0355C96.7856 83.2182 96.4474 81.443 95.8557 79.7945C103.632 77.0052 109 69.5242 109 61.1978Z" fill="white"/>
<path d="M48.3061 51.8992L70.1995 61.8739L92.2623 42.5163C92.6002 40.9102 92.727 39.3464 92.727 37.6556C92.727 24.0462 81.6535 12.9727 68.044 12.9727C59.8869 12.9727 52.3212 16.9879 47.7143 23.7081L44.0374 42.7698L48.3061 51.8992Z" fill="#FED10A"/>
<path d="M25.6534 75.0595C25.3153 76.6656 25.1885 78.3138 25.1885 80.0043C25.1885 93.6562 36.3044 104.73 49.956 104.73C58.1555 104.73 65.8055 100.672 70.4127 93.9098L74.0473 74.9327L69.1868 65.6342L47.2087 55.6172L25.6534 75.0595Z" fill="#24BBB1"/>
<path d="M25.5251 37.1926L40.5294 40.7428L43.8261 23.7099C41.7973 22.1461 39.2615 21.3008 36.641 21.3008C30.1321 21.3008 24.8066 26.584 24.8066 33.1351C24.8066 34.5298 25.0602 35.9247 25.5251 37.1926Z" fill="#EF5098"/>
<path d="M24.2173 40.7812C17.5394 42.9789 12.8479 49.4033 12.8479 56.4616C12.8479 63.3508 17.1167 69.4794 23.4988 71.9308L44.5471 52.9114L40.7008 44.6697L24.2173 40.7812Z" fill="#1BA9F5"/>
<path d="M74.2163 93.9089C76.2874 95.4726 78.7811 96.3602 81.3593 96.3602C87.8682 96.3602 93.1936 91.0769 93.1936 84.5259C93.1936 83.0889 92.9401 81.694 92.4751 80.4261L77.5132 76.918L74.2163 93.9089Z" fill="#93C83E"/>
<path d="M77.2577 72.991L93.7413 76.8371C100.462 74.6392 105.111 68.215 105.111 61.1144C105.111 54.2675 100.842 48.0966 94.4598 45.6875L72.9043 64.5801L77.2577 72.991Z" fill="#0077CC"/>
</svg>
