<svg width="118" height="118" viewBox="0 0 118 118" fill="none" xmlns="http://www.w3.org/2000/svg">
<rect width="118" height="118" rx="16" fill="#1E2235"/>
<path d="M42.5 106C51.056 106 58 98.832 58 90V74H42.5C33.944 74 27 81.168 27 90C27 98.832 33.944 106 42.5 106Z" fill="#0ACF83"/>
<path d="M27 58.5C27 49.944 33.944 43 42.5 43H58V74H42.5C33.944 74 27 67.056 27 58.5Z" fill="#A259FF"/>
<path d="M27 27C27 18.168 33.944 11 42.5 11H58V43H42.5C33.944 43 27 35.832 27 27Z" fill="#F24E1E"/>
<path d="M58 11H74C82.832 11 90 18.168 90 27C90 35.832 82.832 43 74 43H58V11Z" fill="#FF7262"/>
<path d="M90 58.5C90 67.056 82.832 74 74 74C65.168 74 58 67.056 58 58.5C58 49.944 65.168 43 74 43C82.832 43 90 49.944 90 58.5Z" fill="#1ABCFE"/>
</svg>
