<svg width="118" height="118" viewBox="0 0 118 118" fill="none" xmlns="http://www.w3.org/2000/svg">
<rect width="118" height="118" rx="16" fill="#1E2235"/>
<path d="M101.341 55.0798L62.9188 16.6596C60.7075 14.4468 57.1187 14.4468 54.9046 16.6596L46.9262 24.6382L57.0472 34.7594C59.3992 33.9646 62.0962 34.4978 63.9711 36.3726C65.8548 38.2595 66.3842 40.9796 65.5702 43.3392L75.3241 53.0936C77.684 52.2806 80.4068 52.8066 82.2916 54.6945C84.9258 57.3277 84.9258 61.5954 82.2916 64.2303C79.6567 66.8655 75.3891 66.8655 72.7529 64.2303C70.7715 62.2468 70.282 59.3369 71.285 56.8959L62.1887 47.7994L62.1877 71.7376C62.8471 72.0636 63.4493 72.4943 63.9711 73.0129C66.6052 75.6461 66.6052 79.9142 63.9711 82.5511C61.3362 85.185 57.0665 85.185 54.4354 82.5511C51.8013 79.9142 51.8013 75.6464 54.4354 73.0133C55.0667 72.3817 55.8169 71.8815 56.6426 71.5417V47.3804C55.8157 47.0428 55.0651 46.5423 54.4354 45.9088C52.4396 43.9157 51.9597 40.9872 52.9824 38.5366L43.0054 28.5584L16.6603 54.9021C14.4466 57.1169 14.4466 60.7061 16.6603 62.9192L55.0827 101.34C57.2947 103.553 60.8828 103.553 63.0976 101.34L101.34 63.0976C103.553 60.8838 103.554 57.2926 101.341 55.0798Z" fill="#DE4C36"/>
</svg>
