<svg width="118" height="118" viewBox="0 0 118 118" fill="none" xmlns="http://www.w3.org/2000/svg">
<rect width="118" height="118" rx="16" fill="#1E2235"/>
<path d="M58.5002 14C32.8221 14 12 34.8864 12 60.6518C12 81.2641 25.3237 98.7511 43.7998 104.92C46.1236 105.352 46.977 103.908 46.977 102.676C46.977 101.563 46.9336 97.888 46.9139 93.9899C33.9771 96.8119 31.2474 88.4855 31.2474 88.4855C29.1322 83.0932 26.0844 81.6596 26.0844 81.6596C21.8657 78.7641 26.4025 78.8233 26.4025 78.8233C31.072 79.1526 33.5307 83.631 33.5307 83.631C37.678 90.7632 44.4088 88.7011 47.0623 87.5094C47.4795 84.4938 48.6848 82.4361 50.0145 81.2711C39.6864 80.0911 28.8288 76.0909 28.8288 58.2154C28.8288 53.1223 30.6453 48.9604 33.6201 45.6934C33.1372 44.5182 31.5457 39.7735 34.0705 33.3475C34.0705 33.3475 37.9753 32.0936 46.8614 38.1296C50.5703 37.0956 54.5484 36.5775 58.5002 36.5599C62.452 36.5775 66.433 37.0956 70.1492 38.1296C79.0247 32.0936 82.924 33.3475 82.924 33.3475C85.455 39.7735 83.8628 44.5182 83.3799 45.6934C86.3613 48.9604 88.1654 53.1219 88.1654 58.2154C88.1654 76.1334 77.2873 80.079 66.933 81.2338C68.6007 82.6816 70.0868 85.5208 70.0868 89.873C70.0868 96.1149 70.0329 101.139 70.0329 102.676C70.0329 103.917 70.8698 105.372 73.2272 104.914C91.6931 98.7379 105 81.2572 105 60.6518C105 34.8864 84.1808 14 58.5002 14Z" fill="white"/>
<path d="M29.25 80.74C29.1475 80.9567 28.7822 81.0217 28.4502 80.8732C28.1117 80.7308 27.9213 80.4351 28.0311 80.2174C28.1318 79.9942 28.4971 79.9319 28.8349 80.0818C29.1742 80.2239 29.3675 80.5223 29.25 80.74V80.74ZM31.5457 82.6553C31.3232 82.8483 30.888 82.7587 30.5926 82.4537C30.2873 82.1494 30.2302 81.7428 30.4561 81.5467C30.6856 81.354 31.1076 81.444 31.4136 81.7487C31.7189 82.0563 31.7782 82.4606 31.5454 82.6556L31.5457 82.6553ZM33.1208 85.1059C32.8345 85.2917 32.3667 85.1175 32.0779 84.7294C31.7921 84.3416 31.7921 83.8761 32.0842 83.6896C32.3741 83.5031 32.8345 83.6708 33.1274 84.0558C33.4129 84.4505 33.4129 84.9159 33.1204 85.1062L33.1208 85.1059ZM35.784 87.9442C35.5281 88.2078 34.9835 88.1373 34.5845 87.7772C34.1768 87.4254 34.0629 86.926 34.3195 86.6621C34.5783 86.3979 35.1262 86.4722 35.5281 86.8292C35.9333 87.1803 36.057 87.6834 35.7844 87.9442H35.784ZM39.2261 88.9026C39.1138 89.2442 38.5889 89.3995 38.0603 89.2544C37.5325 89.1049 37.187 88.7044 37.2935 88.3591C37.4033 88.0151 37.9304 87.8532 38.463 88.0086C38.99 88.1575 39.3363 88.5548 39.2265 88.9026H39.2261ZM43.1441 89.3088C43.1573 89.6689 42.7089 89.9673 42.154 89.9739C41.5958 89.9851 41.1445 89.6939 41.1386 89.34C41.1386 88.9765 41.5768 88.6808 42.1346 88.6722C42.6895 88.662 43.1441 88.9512 43.1441 89.3088V89.3088ZM46.9925 89.1709C47.0591 89.5221 46.6733 89.8828 46.1225 89.9786C45.5808 90.0711 45.0793 89.8544 45.0101 89.5063C44.9428 89.1463 45.3359 88.7859 45.8765 88.6924C46.4285 88.6028 46.9222 88.8139 46.9925 89.1709" fill="white"/>
</svg>
