<svg width="118" height="118" viewBox="0 0 118 118" fill="none" xmlns="http://www.w3.org/2000/svg">
<rect width="118" height="118" rx="16" fill="#1E2235"/>
<path d="M59 105.118L77.4129 48.4492H40.5867L58.9996 105.118H59Z" fill="#E24329"/>
<path d="M59.0001 105.118L40.5868 48.4492H14.782L59.0001 105.118Z" fill="#FC6D26"/>
<path d="M14.7819 48.4492L9.18661 65.6707C8.93783 66.4363 8.93779 67.261 9.18652 68.0266C9.43524 68.7922 9.91995 69.4595 10.5712 69.9327L59 105.118L14.7815 48.4496L14.7819 48.4492Z" fill="#FCA326"/>
<path d="M14.782 48.4485H40.5868L29.4974 14.3171C28.9267 12.5608 26.4421 12.5612 25.8718 14.3171L14.782 48.4485Z" fill="#E24329"/>
<path d="M59.0001 105.118L77.4131 48.4492H103.218L58.9998 105.118H59.0001Z" fill="#FC6D26"/>
<path d="M103.218 48.4492L108.813 65.6707C109.062 66.4363 109.062 67.2611 108.813 68.0267C108.565 68.7923 108.08 69.4595 107.428 69.9327L59 105.118L103.218 48.4496V48.4492Z" fill="#FCA326"/>
<path d="M103.218 48.4485H77.4131L88.5029 14.3171C89.0736 12.5608 91.5582 12.5612 92.1285 14.3171L103.218 48.4485Z" fill="#E24329"/>
</svg>
