<svg width="140" height="132" viewBox="0 0 140 132" fill="none" xmlns="http://www.w3.org/2000/svg">
<rect x="11" y="7" width="118" height="118" rx="16" fill="#1E2235"/>
<path d="M96.4752 35.1562L70.2816 54.4301L43.4893 35.1562V35.1614L43.5216 35.1875V62.176L69.9798 81.8663L96.4752 62.9363V35.1562Z" fill="#EA4335"/>
<path d="M103.351 30.4688L96.4722 35.157V62.9372L118.117 47.2684V37.8293C118.117 37.8293 115.49 24.3481 103.351 30.4688Z" fill="#FBBC05"/>
<path d="M96.4722 62.9383V98.9698H113.062C113.062 98.9698 117.783 98.5115 118.123 93.4378V47.2695L96.4722 62.9383Z" fill="#34A853"/>
<path d="M43.5229 99.0018V62.1783L43.4893 62.1523L43.5229 99.0018Z" fill="#C5221F"/>
<path d="M43.4881 35.1627L36.647 30.5006C24.5078 24.3798 21.875 37.8558 21.875 37.8558V47.2946L43.4881 62.1512V35.1627Z" fill="#C5221F"/>
<path d="M43.4893 35.1641V62.1527L43.5229 62.1786V35.1901L43.4893 35.1641Z" fill="#C5221F"/>
<path d="M21.875 47.3008V93.469C22.2095 98.5481 26.9357 99.0015 26.9357 99.0015H43.5259L43.4881 62.152L21.875 47.3008Z" fill="#4285F4"/>
</svg>
