<svg width="118" height="118" viewBox="0 0 118 118" fill="none" xmlns="http://www.w3.org/2000/svg">
<rect width="118" height="118" rx="16" fill="#1E2235"/>
<path d="M101.362 53.2273C101.185 51.6288 101.007 49.6749 100.297 47.5435C99.7635 45.412 98.8757 43.103 97.6323 40.6163C96.3888 38.1297 94.7906 35.6429 92.8367 33.1563C92.1262 32.2682 91.238 31.2025 90.1723 30.3144C91.5932 24.6306 88.3963 19.8348 88.3963 19.8348C83.0676 19.4796 79.515 21.4334 78.2716 22.4991C78.0942 22.4991 77.9163 22.3215 77.5611 22.1438C76.6733 21.7886 75.7851 21.4334 74.7194 21.0782C73.6538 20.7229 72.7655 20.5453 71.6999 20.19C70.6342 20.0124 69.5682 19.8348 68.6804 19.6572C68.5025 19.6572 68.3251 19.6572 68.1473 19.6572C65.8382 12.1972 59.0887 9 59.0887 9C51.6288 13.7957 50.2078 20.3677 50.2078 20.3677C50.2078 20.3677 50.2078 20.5453 50.2078 20.7229C49.8526 20.9005 49.3197 20.9005 48.9644 21.0782C48.4316 21.2558 47.8987 21.4334 47.1882 21.611C46.6554 21.7886 46.1225 21.9662 45.412 22.3215C44.3463 22.8544 43.103 23.3872 42.0373 23.92C40.9715 24.4529 39.9059 25.1634 38.8401 25.8739C38.6625 25.8739 38.6625 25.6962 38.6625 25.6962C28.183 21.7886 18.9467 26.5844 18.9467 26.5844C18.0586 37.5968 23.032 44.7016 24.0977 45.9449C23.92 46.6554 23.5648 47.3659 23.3872 48.0764C22.6768 50.563 21.9662 53.2273 21.611 55.8918C21.611 56.247 21.4334 56.6022 21.4334 56.9574C11.8419 61.753 9 71.5221 9 71.5221C16.9929 80.7585 26.4068 81.2911 26.4068 81.2911C27.6501 83.4228 28.8934 85.3763 30.492 87.3302C31.2025 88.0406 31.913 88.9289 32.4458 89.6393C29.6039 97.9875 32.8011 104.915 32.8011 104.915C41.682 105.27 47.5435 101.007 48.7868 99.9414C49.6749 100.297 50.563 100.474 51.4511 100.83C54.1154 101.54 56.9574 101.895 59.7991 102.073C60.5095 102.073 61.2204 102.073 61.9308 102.073H62.2861H62.4634H62.8187H63.1739C67.4369 108.112 74.7194 109 74.7194 109C80.0481 103.494 80.2255 97.9875 80.2255 96.744V96.5666V96.3888C81.2911 95.6784 82.3567 94.7906 83.4228 93.9023C85.5541 91.9484 87.3302 89.8171 88.9289 87.508C89.1067 87.3302 89.2841 87.1528 89.2841 86.7976C95.3232 87.1528 99.4083 83.0676 99.4083 83.0676C98.3427 76.8507 94.7901 73.8312 94.0797 73.2986H93.9023C93.9023 72.9429 93.9023 72.5877 93.9023 72.2325C93.9023 71.5221 93.9023 70.8116 93.9023 70.279V69.3908V69.2129V69.0356V68.8577V68.5025V67.9699C93.9023 67.7921 93.9023 67.6147 93.9023 67.4369C93.9023 67.2595 93.9023 67.0817 93.9023 66.9038V66.3712V65.8382C93.7245 65.1278 93.7245 64.4173 93.5471 63.8843C92.8367 61.2204 91.9484 58.7335 90.5276 56.4244C89.1067 54.1154 87.508 52.1616 85.5541 50.3854C83.6002 48.6092 81.4689 47.3659 79.1598 46.3001C76.8507 45.2344 74.5416 44.7016 72.0551 44.3463C70.8116 44.1687 69.746 44.1687 68.5025 44.1687H68.1473H67.9699H67.7921H67.6147H67.2595C67.0817 44.1687 66.9038 44.1687 66.7265 44.1687C66.1934 44.1687 65.483 44.3463 64.9504 44.3463C62.6413 44.7016 60.3322 45.5897 58.3783 46.833C56.4244 48.0764 54.6483 49.4973 53.2273 51.0959C51.8064 52.6944 50.7406 54.6483 50.0302 56.6022C49.3197 58.5561 48.9644 60.5095 48.7868 62.4634C48.7868 62.9965 48.7868 63.3517 48.7868 63.8843C48.7868 64.0621 48.7868 64.0621 48.7868 64.24V64.5952C48.7868 64.7726 48.7868 65.1278 48.7868 65.3056C48.9644 66.1934 49.1421 67.2595 49.3197 68.1473C49.8526 69.9234 50.7406 71.5221 51.6288 72.9429C52.6944 74.3642 53.9378 75.4299 55.1813 76.3177C56.4244 77.2059 57.8457 77.9163 59.2665 78.2716C60.6874 78.6268 61.9308 78.8046 63.3517 78.8046C63.5291 78.8046 63.7069 78.8046 63.8843 78.8046H64.0621H64.24C64.4173 78.8046 64.5952 78.8046 64.5952 78.8046C64.5952 78.8046 64.5952 78.8046 64.7725 78.8046H64.9504H65.1278C65.3056 78.8046 65.483 78.8046 65.6608 78.8046C65.8382 78.8046 66.016 78.8046 66.1934 78.6268C66.5486 78.6268 66.7265 78.4494 67.0817 78.4494C67.6147 78.2716 68.1473 78.0942 68.6804 77.739C69.2129 77.5611 69.5682 77.2059 70.1012 76.8507C70.2786 76.8507 70.279 76.6733 70.4564 76.4955C70.9895 76.1403 70.9895 75.4299 70.6342 75.0746C70.279 74.7194 69.746 74.5416 69.3908 74.8968C69.2129 74.8968 69.2129 75.0746 69.0356 75.0746C68.6803 75.252 68.3251 75.4299 67.7921 75.6072C67.4369 75.7851 66.9038 75.7851 66.5486 75.9624C66.3712 75.9624 66.016 75.9624 65.8382 75.9624C65.6608 75.9624 65.6608 75.9624 65.483 75.9624C65.3056 75.9624 65.3056 75.9624 65.1278 75.9624C64.9504 75.9624 64.9504 75.9624 64.7725 75.9624C64.5952 75.9624 64.4173 75.9624 64.4173 75.9624H64.24H64.0621C63.8843 75.9624 63.8847 75.9624 63.7069 75.9624C62.6413 75.7851 61.753 75.6072 60.6874 75.0746C59.6217 74.7194 58.7335 74.009 57.8452 73.2986C56.9574 72.5877 56.247 71.5221 55.7139 70.6342C55.1813 69.746 54.6483 68.5025 54.4705 67.2595C54.293 66.7265 54.293 66.016 54.293 65.483C54.293 65.3056 54.293 65.1278 54.293 64.9504V64.7725V64.5952C54.293 64.24 54.293 63.8843 54.4705 63.5291C55.0035 60.8648 56.247 58.3783 58.3783 56.247C58.9113 55.7139 59.4439 55.3587 59.9769 54.8257C60.5095 54.4705 61.2204 54.1154 61.753 53.7602C62.4634 53.405 63.1739 53.2273 63.7069 53.0497C64.4173 52.8721 65.1278 52.6944 65.8382 52.6944C66.1934 52.6944 66.5486 52.6944 66.9038 52.6944H67.0817H67.4369H67.6147H67.9699C68.6804 52.6944 69.5682 52.8721 70.2786 53.0497C71.8773 53.4049 73.2981 53.9378 74.7194 54.8257C77.5611 56.4244 79.8702 58.9113 81.4689 61.753C82.1794 63.1739 82.7124 64.7726 83.0676 66.3712C83.0676 66.7265 83.245 67.2595 83.245 67.6147V67.9699V68.3251C83.245 68.5025 83.245 68.5025 83.245 68.6804C83.245 68.8577 83.245 68.8577 83.245 69.0356V69.3908V69.746C83.245 69.9234 83.245 70.2786 83.245 70.4564C83.245 70.9895 83.245 71.3447 83.0676 71.8773C83.0676 72.2325 82.8898 72.7655 82.8898 73.1207C82.8898 73.476 82.7119 74.009 82.5346 74.3642C82.3567 75.252 82.0015 76.1403 81.6463 76.8507C80.9359 78.4494 80.0481 80.0481 78.982 81.6463C76.8507 84.4885 74.009 86.975 70.6342 88.3958C69.0356 89.1067 67.2595 89.6393 65.483 89.9945C64.5952 90.1723 63.7069 90.1723 62.8187 90.3497H62.6413H62.4634H62.1082H61.753H61.5756C61.0426 90.3497 60.6874 90.3497 60.1543 90.3497C58.2009 90.1723 56.247 89.8171 54.4705 89.2841C52.6944 88.7515 50.7406 88.0406 49.1421 87.1528C45.7673 85.3763 42.7477 82.8898 40.2611 79.8702C39.0177 78.4494 37.952 76.8507 37.2415 75.0746C36.3534 73.2986 35.643 71.5221 35.1101 69.746C34.5773 67.9699 34.222 66.016 34.222 64.24V63.8843V63.7069V63.3517V62.2861V62.1082V61.753V61.5756C34.222 61.3978 34.222 61.0426 34.222 60.8648C34.222 59.9769 34.3996 58.9113 34.3996 58.023C34.5773 57.1348 34.7549 56.0691 34.9325 55.1813C35.1101 54.293 35.2877 53.2273 35.6429 52.3392C36.1758 50.563 36.8863 48.7868 37.5968 47.0106C39.1953 43.6359 41.1492 40.6163 43.6358 38.3073C44.1687 37.7744 44.8792 37.0639 45.5897 36.5311C46.3002 35.9982 47.0107 35.4653 47.7211 35.1101C48.4316 34.5773 49.142 34.222 49.8526 33.8668C50.2078 33.6891 50.563 33.5115 50.9183 33.3339C51.0959 33.3339 51.2735 33.1563 51.4511 33.1563C51.6287 33.1563 51.8064 32.9787 51.984 32.9787C52.6945 32.6234 53.5826 32.4458 54.293 32.0906C54.4705 32.0906 54.6483 31.9129 54.8261 31.9129C55.0035 31.9129 55.1813 31.7353 55.3587 31.7353C55.7139 31.5577 56.247 31.5577 56.6022 31.3801C56.7796 31.3801 56.9574 31.2025 57.3126 31.2025C57.49 31.2025 57.6678 31.2025 58.023 31.0248C58.2009 31.0248 58.3783 31.0249 58.7335 30.8472H59.0887H59.4439C59.6217 30.8472 59.7991 30.8472 60.1543 30.6696C60.3322 30.6696 60.6874 30.6696 60.8652 30.492C61.0426 30.492 61.3978 30.492 61.5756 30.492C61.753 30.492 61.9308 30.492 62.1082 30.492H62.4634H62.6413H62.8187C62.9965 30.492 63.3517 30.492 63.5291 30.492H63.8843H64.0621C64.24 30.492 64.4173 30.492 64.5952 30.492C65.483 30.492 66.1934 30.492 67.0817 30.492C68.6804 30.492 70.2786 30.6696 71.8773 31.0248C74.8968 31.5577 77.739 32.6234 80.4033 33.8668C83.0676 35.1101 85.3763 36.7087 87.3302 38.4849C87.508 38.6625 87.508 38.6625 87.6854 38.8401C87.8632 39.0177 87.8632 39.0177 88.0406 39.1953C88.2184 39.373 88.5736 39.5506 88.751 39.9058C88.9289 40.2611 89.2841 40.2611 89.4619 40.6163C89.6393 40.9715 89.9945 41.1492 90.1723 41.3268C91.0601 42.2149 91.7706 43.103 92.4814 44.1687C93.9023 45.9449 95.1458 47.8987 96.0336 49.6749C96.0336 49.8526 96.2114 49.8526 96.2114 50.0302C96.2114 50.2078 96.3888 50.2078 96.3888 50.3854C96.5666 50.563 96.5666 50.7406 96.744 51.0959C96.9218 51.2735 96.9218 51.4511 97.0992 51.8064C97.2771 51.984 97.2771 52.1616 97.4544 52.5168C97.8101 53.405 98.1653 54.1154 98.3427 54.8257C98.6979 56.0691 99.0531 57.1348 99.231 58.023C99.4083 58.3783 99.7635 58.7335 100.119 58.5561C100.474 58.5561 100.83 58.2009 100.83 57.8452C101.54 55.7139 101.54 54.4705 101.362 53.2273Z" fill="url(#paint0_linear_129_844)"/>
<defs>
<linearGradient id="paint0_linear_129_844" x1="55.5193" y1="136.024" x2="55.5193" y2="20.3414" gradientUnits="userSpaceOnUse">
<stop stop-color="#FFF100"/>
<stop offset="1" stop-color="#F05A28"/>
</linearGradient>
</defs>
</svg>
