<svg width="118" height="118" viewBox="0 0 118 118" fill="none" xmlns="http://www.w3.org/2000/svg">
<rect width="118" height="118" rx="16" fill="#1E2235"/>
<path d="M34.851 20H17.0861C13.7216 20 11 22.7261 11 26.063V43.2094C11 44.9821 11.7776 46.6654 13.1234 47.8125L70.1863 96.54C71.2929 97.4785 72.6985 98 74.149 98H91.9139C95.2784 98 98 95.2888 98 91.9369V74.7906C98 73.0179 97.2224 71.3346 95.8766 70.1875L38.8137 21.4599C37.7071 20.5214 36.3015 20 34.851 20Z" fill="#FF8100"/>
<path d="M32.9622 20H17.1561C13.7528 20 11 22.7216 11 26.0861V45.6603C11 45.9445 11.0151 46.2436 11.0605 46.5276L19.0468 101.766C19.4854 104.772 22.0718 107 25.1423 107H48.8439C52.2472 107 55 104.278 55 100.914V73.1899C55 72.532 54.879 71.889 54.6824 71.2608L38.8006 24.1571C37.9687 21.6748 35.6091 20 32.9622 20Z" fill="url(#paint0_linear_133_12691)"/>
<path d="M100.914 11.015H50.1165C47.6791 11.015 45.4809 12.47 44.5239 14.72L20.4935 70.955C20.1645 71.72 20 72.53 20 73.3549V100.895C20 104.27 22.7216 107 26.0861 107H52.9577C54.154 107 55.3353 106.64 56.3372 105.965L104.293 73.865C105.983 72.725 107 70.82 107 68.78V17.105C107 13.73 104.278 11 100.914 11V11.015Z" fill="url(#paint1_linear_133_12691)"/>
<path d="M89 29H29V89H89V29Z" fill="black"/>
<path d="M50.0295 55.585H45.6372V40.93H50.0295V37.015H37V40.93H41.3923V55.585H37V59.5H50.0295V55.585ZM58.6961 37V52.105C58.6961 52.765 58.5635 53.335 58.2834 53.845C58.0034 54.355 57.6202 54.745 57.119 55.03C56.6179 55.315 56.0431 55.45 55.4093 55.45H52.2404V59.5H55.9547C57.2959 59.5 58.4898 59.2 59.5658 58.585C60.6417 57.97 61.4819 57.13 62.0862 56.05C62.6905 54.97 63 53.755 63 52.405V37H58.6961ZM37 82H60.5828V77.5H37V82Z" fill="white"/>
<defs>
<linearGradient id="paint0_linear_133_12691" x1="9.91097" y1="22.6916" x2="46.8256" y2="103.21" gradientUnits="userSpaceOnUse">
<stop offset="0.1" stop-color="#FC801D"/>
<stop offset="0.59" stop-color="#FE2857"/>
</linearGradient>
<linearGradient id="paint1_linear_133_12691" x1="17.6074" y1="101.045" x2="105.672" y2="13.2529" gradientUnits="userSpaceOnUse">
<stop offset="0.21" stop-color="#FE2857"/>
<stop offset="0.7" stop-color="#007EFF"/>
</linearGradient>
</defs>
</svg>
