<svg width="118" height="118" viewBox="0 0 118 118" fill="none" xmlns="http://www.w3.org/2000/svg">
<rect width="118" height="118" rx="16" fill="#1E2235"/>
<path d="M44.7528 86.3351C44.7528 86.3351 40.9315 88.5573 47.4724 89.3092C55.3967 90.2132 59.4464 90.0837 68.1791 88.4308C68.1791 88.4308 70.4751 89.8704 73.6812 91.1174C54.1053 99.5072 29.3767 90.6313 44.7528 86.3351V86.3351ZM42.3606 75.3867C42.3606 75.3867 38.0746 78.5594 44.6204 79.2364C53.0853 80.1096 59.7701 80.1811 71.3376 77.9537C71.3376 77.9537 72.9376 79.5757 75.4534 80.4628C51.7847 87.3838 25.4222 81.0086 42.3606 75.3867" fill="#5382A1"/>
<path d="M62.5268 56.8161C67.3504 62.3694 61.2595 67.3668 61.2595 67.3668C61.2595 67.3668 73.5071 61.0442 67.8823 53.1266C62.629 45.7434 58.6001 42.0744 80.4099 29.4258C80.4099 29.4258 46.1759 37.9758 62.5268 56.8159" fill="#E76F00"/>
<path d="M88.4175 94.4345C88.4175 94.4345 91.2454 96.7645 85.303 98.5671C74.0036 101.99 38.2732 103.024 28.3473 98.7035C24.7794 97.1516 31.4705 94.9974 33.5752 94.5452C35.7701 94.0692 37.0247 94.158 37.0247 94.158C33.0566 91.3626 11.3768 99.6468 26.0125 102.019C65.9258 108.492 98.7704 99.1045 88.4175 94.4345ZM46.5901 64.0442C46.5901 64.0442 28.4156 68.3612 40.1543 69.9285C45.1105 70.5921 54.9909 70.4421 64.1944 69.6708C71.7159 69.0367 79.2685 67.6875 79.2685 67.6875C79.2685 67.6875 76.6163 68.8233 74.6976 70.1335C56.2414 74.9875 20.5875 72.7295 30.8518 67.7642C39.5324 63.5682 46.5904 64.0442 46.5904 64.0442H46.5901ZM79.1935 82.2682C97.9554 72.519 89.2806 63.1501 83.2258 64.4125C81.7417 64.7212 81.0801 64.9887 81.0801 64.9887C81.0801 64.9887 81.6311 64.1259 82.6833 63.7524C94.6613 59.5411 103.873 76.1726 78.8165 82.7596C78.8165 82.7599 79.1069 82.5004 79.1935 82.2682" fill="#5382A1"/>
<path d="M67.882 9.00029C67.882 9.00029 78.2726 19.3946 58.0271 35.3772C41.7926 48.1985 54.3251 55.5086 58.0205 63.8609C48.544 55.3109 41.5893 47.7841 46.2552 40.7791C53.103 30.4957 72.0742 25.5102 67.882 9" fill="#E76F00"/>
<path d="M48.4336 108.684C66.4425 109.837 94.0969 108.045 94.7518 99.5234C94.7518 99.5234 93.4929 102.754 79.8685 105.319C64.4977 108.212 45.54 107.874 34.2959 106.02C34.2962 106.02 36.5977 107.925 48.4339 108.684" fill="#5382A1"/>
</svg>
