<svg width="118" height="118" viewBox="0 0 118 118" fill="none" xmlns="http://www.w3.org/2000/svg">
<rect width="118" height="118" rx="16" fill="#1E2235"/>
<g clip-path="url(#clip0_132_12603)">
<path d="M48.9526 17.8007C47.8686 16.7049 46.3563 16.0282 44.6751 16.0282C43.0003 16.0282 41.4997 16.7049 40.4285 17.8007H40.3977C39.3169 18.8912 38.6442 20.4136 38.6442 22.0985C38.6442 23.7898 39.3169 25.2993 40.3977 26.3834L40.4285 26.408C41.4997 27.4984 43.0003 28.1688 44.6751 28.1688C46.3563 28.1688 47.8686 27.4984 48.9526 26.408L48.9685 26.3834C50.0546 25.2993 50.7209 23.7898 50.7209 22.0985C50.7209 20.4136 50.0546 18.8912 48.9685 17.8007H48.9526ZM44.6751 100.893C46.3563 100.893 47.8686 100.205 48.9526 99.1274L48.9685 99.0953C50.0546 98.0198 50.7209 96.4974 50.7209 94.8243C50.7209 93.133 50.0546 91.617 48.9685 90.5212H48.9526C47.8686 89.4126 46.3563 88.7422 44.6751 88.7422C43.0003 88.7422 41.4997 89.4126 40.4285 90.5212H40.3977C39.3169 91.617 38.6442 93.133 38.6442 94.8243C38.6442 96.4974 39.3169 98.0198 40.3977 99.0953L40.4285 99.1274C41.4997 100.205 43.0003 100.893 44.6751 100.893ZM77.5514 82.503C79.0466 82.1085 80.4005 81.1432 81.2263 79.6838L81.3379 79.4711C82.0722 78.0866 82.2061 76.4894 81.814 75.0739C81.4186 73.558 80.4473 72.2173 78.9999 71.3781L78.9159 71.3214C77.5057 70.5442 75.8989 70.3753 74.4227 70.7762C72.9222 71.1525 71.5747 72.1607 70.7532 73.6082C69.9211 75.0419 69.7468 76.6957 70.1453 78.2181C70.5566 79.7149 71.5183 81.0683 72.9562 81.914H72.9658C74.4068 82.7468 76.0391 82.8975 77.5514 82.503ZM50.8676 52.2404C49.282 50.6495 47.0971 49.6532 44.6751 49.6532C42.2627 49.6532 40.0831 50.6495 38.5007 52.2404C36.9258 53.8258 35.9545 56.0185 35.9545 58.4485C35.9545 60.885 36.9258 63.0841 38.5007 64.6878C40.0831 66.2657 42.2627 67.2557 44.6751 67.2557C47.0971 67.2557 49.282 66.2657 50.8676 64.6878C52.4457 63.0841 53.417 60.885 53.417 58.4485C53.417 56.0185 52.4457 53.8258 50.8676 52.2404ZM47.3861 41.8937C50.8952 42.4753 54.0526 44.1666 56.4617 46.6095H56.4809C56.8634 46.9975 57.2375 47.4177 57.5829 47.8432L63.6075 44.3366C62.7977 41.8745 62.7605 39.3001 63.4109 36.8882C64.2706 33.6553 66.3535 30.7613 69.4758 28.9449L69.5789 28.8829C72.6671 27.1221 76.1784 26.7586 79.3484 27.6235C82.5579 28.4873 85.4538 30.5924 87.2561 33.7312V33.7376C89.05 36.8572 89.4145 40.4398 88.558 43.6598C87.7046 46.8906 85.6121 49.8039 82.493 51.6075L81.6705 52.0971H81.5865C78.7013 53.4805 75.528 53.6943 72.614 52.9235C70.2208 52.2842 68.0252 50.9435 66.3068 49.0331L60.2918 52.529C60.9825 54.37 61.3662 56.3563 61.3662 58.4485C61.3662 60.5343 60.9825 62.5453 60.2918 64.3991L66.3068 67.8822C68.0252 65.9471 70.2208 64.6311 72.614 63.9918C75.8234 63.1087 79.3825 63.485 82.493 65.3078L82.6918 65.4019V65.4147C85.6971 67.2429 87.7142 70.0749 88.558 73.2693C89.4145 76.4702 89.05 80.0538 87.2561 83.1798L87.1477 83.3989L87.135 83.3797C85.3326 86.3934 82.493 88.4354 79.358 89.2992C76.1412 90.1513 72.5832 89.7878 69.4758 87.9907V87.965C66.3535 86.1486 64.2706 83.2482 63.4109 80.0228C62.7605 77.6173 62.7977 75.0419 63.6075 72.5808L57.5829 69.0849C57.2375 69.5115 56.8634 69.9124 56.4809 70.3005L56.4617 70.3186C54.0526 72.7497 50.8952 74.441 47.3861 75.0045V82.0081C49.8867 82.534 52.128 83.7934 53.8846 85.5596L53.8931 85.5788C56.2471 87.934 57.7041 91.2161 57.7041 94.8243C57.7041 98.4207 56.2471 101.682 53.8931 104.051L53.8846 104.088C51.5148 106.456 48.2618 107.922 44.6751 107.922C41.1076 107.922 37.8503 106.456 35.4869 104.088H35.4784V104.051C33.1212 101.682 31.6611 98.4207 31.6611 94.8243C31.6611 91.2161 33.1212 87.934 35.4784 85.5788V85.5596H35.4869C37.2403 83.7934 39.4848 82.534 41.979 82.0081V75.0045C38.4667 74.441 35.3189 72.7497 32.9129 70.3186L32.8874 70.3005C29.8799 67.2621 28 63.0841 28 58.4485C28 53.8258 29.8799 49.6478 32.8874 46.6095H32.9129C35.3189 44.1666 38.4667 42.4753 41.979 41.8937V34.9211C39.4848 34.3759 37.2403 33.1176 35.4869 31.3632H35.4784V31.3439C33.1212 28.9642 31.6611 25.7066 31.6611 22.0985C31.6611 18.5085 33.1212 15.22 35.4784 12.8519L35.4869 12.8402C37.8503 10.4657 41.1076 9 44.6751 9C48.2618 9 51.5148 10.4657 53.8846 12.8402V12.8519H53.8931C56.2471 15.22 57.7041 18.5085 57.7041 22.0985C57.7041 25.7066 56.2471 28.9642 53.8931 31.3439L53.8846 31.3632C52.128 33.1176 49.8867 34.3759 47.3861 34.9211V41.8937ZM81.2263 37.2453L81.1763 37.1705C80.3442 35.7604 79.0179 34.8206 77.5514 34.4133C76.0391 34.0124 74.4068 34.1824 72.9562 35.0152H72.9658C71.5183 35.8416 70.5502 37.1951 70.1453 38.711C69.7468 40.2142 69.9211 41.8745 70.7532 43.3209L70.7808 43.3594C71.615 44.7867 72.9413 45.7446 74.4227 46.1326C75.9116 46.5528 77.5705 46.3775 78.9999 45.5382L79.0775 45.5008C80.4845 44.6552 81.4218 43.3209 81.814 41.8552C82.2125 40.3457 82.0541 38.6918 81.2263 37.2453Z" fill="white"/>
</g>
<defs>
<clipPath id="clip0_132_12603">
<rect width="61" height="99" fill="white" transform="translate(28 9)"/>
</clipPath>
</defs>
</svg>
