<svg width="118" height="118" viewBox="0 0 118 118" fill="none" xmlns="http://www.w3.org/2000/svg">
<g id="kotlin">
<g id="Tech Stack Logos">
<rect width="118" height="118" rx="16" fill="#1E2235"/>
</g>
<g id="Group 59">
<path id="Vector" d="M103.001 16H59.1842L17.3433 60.0006H58.9238L59.1182 59.8026L103.001 16Z" fill="url(#paint0_linear_129_1092)"/>
<path id="Vector_2" d="M103.001 103.995H15H103.001ZM59.118 59.7969L58.9236 59.9949H59.316L59.118 59.7969Z" fill="url(#paint1_linear_129_1092)"/>
<path id="Vector_3" d="M59.1839 16H15V62.4646V60.0006H17.343L59.1839 16Z" fill="url(#paint2_linear_129_1092)"/>
<path id="Vector_4" d="M58.9236 60H17.343L15 62.464V104.001L58.9236 60Z" fill="url(#paint3_linear_129_1092)"/>
<path id="Vector_5" d="M59.316 60H58.9236L15 104.001H103.001L59.316 60Z" fill="url(#paint4_linear_129_1092)"/>
<path id="Vector_6" d="M17.343 60H15V62.464L17.343 60Z" fill="url(#paint5_linear_129_1092)"/>
</g>
</g>
<defs>
<linearGradient id="paint0_linear_129_1092" x1="-0.706213" y1="96.4211" x2="81.1836" y2="14.5313" gradientUnits="userSpaceOnUse">
<stop stop-color="#C757BC"/>
<stop offset="0.108" stop-color="#C757BC"/>
<stop offset="0.173" stop-color="#CD5CA9"/>
<stop offset="0.492" stop-color="#E8744F"/>
<stop offset="0.716" stop-color="#F88316"/>
<stop offset="0.823" stop-color="#FF8900"/>
<stop offset="1" stop-color="#FF8900"/>
</linearGradient>
<linearGradient id="paint1_linear_129_1092" x1="43.4278" y1="119.847" x2="83.3424" y2="79.9326" gradientUnits="userSpaceOnUse">
<stop stop-color="#00AFFF"/>
<stop offset="0.296" stop-color="#00AFFF"/>
<stop offset="0.694" stop-color="#5282FF"/>
<stop offset="1" stop-color="#945DFF"/>
</linearGradient>
<linearGradient id="paint2_linear_129_1092" x1="14.0719" y1="40.3202" x2="42.0724" y2="12.3189" gradientUnits="userSpaceOnUse">
<stop stop-color="#00AFFF"/>
<stop offset="0.296" stop-color="#00AFFF"/>
<stop offset="0.694" stop-color="#5282FF"/>
<stop offset="1" stop-color="#945DFF"/>
</linearGradient>
<linearGradient id="paint3_linear_129_1092" x1="-0.215109" y1="96.9117" x2="81.6746" y2="15.0219" gradientUnits="userSpaceOnUse">
<stop stop-color="#AD4CA4"/>
<stop offset="0.108" stop-color="#AD4CA4"/>
<stop offset="0.173" stop-color="#B25093"/>
<stop offset="0.492" stop-color="#CA6545"/>
<stop offset="0.716" stop-color="#D87213"/>
<stop offset="0.823" stop-color="#DE7700"/>
<stop offset="1" stop-color="#DE7700"/>
</linearGradient>
<linearGradient id="paint4_linear_129_1092" x1="43.4278" y1="119.852" x2="83.3424" y2="79.9377" gradientUnits="userSpaceOnUse">
<stop stop-color="#0098DE"/>
<stop offset="0.296" stop-color="#0098DE"/>
<stop offset="0.694" stop-color="#4771DE"/>
<stop offset="1" stop-color="#8151DE"/>
</linearGradient>
<linearGradient id="paint5_linear_129_1092" x1="25.0764" y1="51.3238" x2="53.0768" y2="23.3226" gradientUnits="userSpaceOnUse">
<stop stop-color="#0098DE"/>
<stop offset="0.296" stop-color="#0098DE"/>
<stop offset="0.694" stop-color="#4771DE"/>
<stop offset="1" stop-color="#8151DE"/>
</linearGradient>
</defs>
</svg>
