<svg width="118" height="118" viewBox="0 0 118 118" fill="none" xmlns="http://www.w3.org/2000/svg">
<rect width="118" height="118" rx="16" fill="#1E2235"/>
<path d="M97.8643 33.0165C97.3325 31.313 96.0563 29.9288 94.4611 29.0771L62.0244 13.5324C61.1736 13.1065 60.2165 13 59.3657 13C58.5149 13 57.5578 13 56.707 13.2129L24.2703 28.8641C22.6751 29.6094 21.5052 30.9935 21.0798 32.8035L13.1036 67.8324C12.7846 69.6424 13.21 71.4524 14.2735 72.943L36.7132 100.732C37.9894 102.01 39.7974 102.861 41.6053 102.968H77.3388C79.2531 103.181 81.061 102.329 82.2309 100.732L104.671 72.943C105.734 71.4524 106.16 69.6424 105.947 67.8324L97.8643 33.0165Z" fill="white" stroke="white" stroke-width="5" stroke-miterlimit="10"/>
<path d="M97.8643 33.0165C97.3325 31.313 96.0563 29.9288 94.4611 29.0771L62.0244 13.5324C61.1736 13.1065 60.2165 13 59.3657 13C58.5149 13 57.5578 13 56.707 13.2129L24.2703 28.8641C22.6751 29.6094 21.5052 30.9935 21.0798 32.8035L13.1036 67.8324C12.7846 69.6424 13.21 71.4524 14.2735 72.943L36.7132 100.732C37.9894 102.01 39.7974 102.861 41.6053 102.968H77.3388C79.2531 103.181 81.061 102.329 82.2309 100.732L104.671 72.943C105.734 71.4524 106.16 69.6424 105.947 67.8324L97.8643 33.0165Z" fill="#326DE6"/>
<path d="M93.0763 66.1331C92.9694 66.1331 92.8625 66.1331 92.8625 66.0265C92.8625 65.9199 92.6488 65.9199 92.435 65.9199C92.0076 65.8133 91.5801 65.8133 91.1526 65.8133C90.9388 65.8133 90.7251 65.8133 90.5113 65.7067H90.4045C89.2289 65.6001 87.9464 65.3868 86.7708 65.067C86.4502 64.9604 86.1296 64.6405 86.0227 64.3207L85.1677 64.1075C85.5952 61.0157 85.3814 57.8172 84.7402 54.7254C83.9921 51.6336 82.7096 48.6484 80.9997 45.983L81.6409 45.3433V45.2367C81.6409 44.9169 81.7478 44.4904 81.9615 44.2772C82.9234 43.4243 83.8852 42.7846 84.9539 42.1449C85.1677 42.0383 85.3814 41.9317 85.5952 41.825C86.0227 41.6118 86.3433 41.3986 86.7708 41.1854C86.8777 41.0787 86.9845 41.0787 87.0914 40.9721C87.1983 40.8655 87.0914 40.8655 87.0914 40.7589C88.0533 40.0126 88.267 38.7332 87.5189 37.7737C87.1983 37.3472 86.557 37.0274 86.0227 37.0274C85.4883 37.0274 84.9539 37.2406 84.5265 37.5605L84.4196 37.6671C84.3127 37.7737 84.2058 37.8803 84.099 37.8803C83.7783 38.2002 83.4577 38.52 83.244 38.8398C83.1371 39.0531 82.9234 39.1597 82.8165 39.2663C82.0684 40.1192 81.1065 40.9721 80.1447 41.6118C79.9309 41.7184 79.7172 41.825 79.5034 41.825C79.3966 41.825 79.1828 41.825 79.0759 41.7184H78.9691L78.1141 42.2515C77.2591 41.3986 76.2972 40.5457 75.4423 39.6928C71.488 36.6009 66.5718 34.6819 61.5488 34.1488L61.4419 33.2959V33.4025C61.1213 33.1893 61.0144 32.8694 60.9075 32.5496C60.9075 31.3768 60.9075 30.2041 61.1213 28.9247V28.8181C61.1213 28.6049 61.2282 28.3916 61.2282 28.1784C61.335 27.7519 61.335 27.3255 61.4419 26.899V26.2593C61.5488 25.1932 60.6938 24.127 59.6251 24.0204C58.9838 23.9138 58.3426 24.2337 57.8082 24.7667C57.3807 25.1932 57.167 25.7263 57.167 26.2593V26.7924C57.167 27.2189 57.2739 27.6453 57.3807 28.0718C57.4876 28.285 57.4876 28.4982 57.4876 28.7115V28.8181C57.7014 29.9908 57.7014 31.1636 57.7014 32.443C57.5945 32.7628 57.4876 33.0827 57.167 33.2959V33.5091L57.0601 34.362C55.8845 34.4686 54.7089 34.6819 53.4264 34.8951C48.4034 35.9612 43.8079 38.6266 40.2811 42.3581L39.6398 41.9317H39.533C39.4261 41.9317 39.3192 42.0383 39.1055 42.0383C38.8917 42.0383 38.678 41.9317 38.4642 41.825C37.5024 41.0787 36.5405 40.2258 35.7924 39.3729C35.6855 39.1597 35.4718 39.0531 35.3649 38.9465C35.0443 38.6266 34.8306 38.3068 34.5099 37.9869C34.4031 37.8803 34.2962 37.8803 34.1893 37.7737C34.0824 37.6671 34.0824 37.6671 34.0824 37.6671C33.655 37.3472 33.1206 37.134 32.5862 37.134C31.945 37.134 31.4106 37.3472 31.09 37.8803C30.4488 38.8398 30.6625 40.1192 31.5175 40.8655C31.6244 40.8655 31.6244 40.9721 31.6244 40.9721C31.6244 40.9721 31.8381 41.1854 31.945 41.1854C32.2656 41.3986 32.6931 41.6118 33.1206 41.825C33.3343 41.9317 33.5481 42.0383 33.7618 42.1449C34.8306 42.7846 35.8993 43.4243 36.7543 44.2772C36.968 44.4904 37.1818 44.9169 37.0749 45.2367V45.1301L37.7161 45.7698C37.6093 45.983 37.5024 46.0896 37.3955 46.3029C34.0824 51.527 32.6931 57.7106 33.655 63.7876L32.8 64.0009C32.8 64.1075 32.6931 64.1075 32.6931 64.1075C32.5862 64.4273 32.2656 64.6405 31.945 64.8538C30.7694 65.1736 29.5938 65.3868 28.3113 65.4935C28.0976 65.4935 27.8838 65.4935 27.6701 65.6001C27.2426 65.6001 26.8151 65.7067 26.3876 65.7067C26.2807 65.7067 26.1739 65.8133 25.9601 65.8133C25.8532 65.8133 25.8532 65.8133 25.7464 65.9199C24.5708 66.1331 23.8226 67.1993 24.0364 68.3721C24.2501 69.3316 25.212 69.9713 26.1739 69.8647C26.3876 69.8647 26.4945 69.8647 26.7082 69.758C26.8151 69.758 26.8151 69.758 26.8151 69.6514C26.8151 69.5448 27.1357 69.6514 27.2426 69.6514C27.6701 69.5448 28.0976 69.3316 28.4182 69.225C28.6319 69.1184 28.8457 69.0117 29.0594 69.0117H29.1663C30.3419 68.5853 31.4106 68.2654 32.6931 68.0522H32.8C33.1206 68.0522 33.4412 68.1588 33.655 68.3721C33.7618 68.3721 33.7618 68.4787 33.7618 68.4787L34.7237 68.3721C36.3268 73.2763 39.3192 77.6475 43.4873 80.8459C44.4491 81.5922 45.3041 82.2319 46.3728 82.765L45.8385 83.5113C45.8385 83.6179 45.9453 83.6179 45.9453 83.6179C46.1591 83.9378 46.1591 84.3642 46.0522 84.6841C45.6247 85.7502 44.9835 86.8164 44.3422 87.7759V87.8825C44.2354 88.0957 44.1285 88.2023 43.9148 88.4156C43.701 88.6288 43.4873 89.0553 43.1666 89.4817C43.0598 89.5883 43.0598 89.695 42.9529 89.8016C42.9529 89.8016 42.9529 89.9082 42.846 89.9082C42.3117 90.9743 42.7392 92.2537 43.701 92.7868C43.9148 92.8934 44.2354 93 44.4491 93C45.3041 93 46.0522 92.4669 46.4797 91.7206C46.4797 91.7206 46.4797 91.614 46.5866 91.614C46.5866 91.5074 46.6934 91.4008 46.8003 91.2942C46.9072 90.8677 47.1209 90.5479 47.2278 90.1214L47.4416 89.4817C47.7622 88.309 48.2965 87.2428 48.8309 86.1767C49.0447 85.8568 49.3653 85.6436 49.6859 85.537C49.7928 85.537 49.7928 85.537 49.7928 85.4304L50.2203 84.5775C53.2127 85.7502 56.312 86.2833 59.5182 86.2833C61.4419 86.2833 63.3656 86.0701 65.2893 85.537C66.4649 85.3238 67.6405 84.8973 68.7093 84.5775L69.1368 85.3238C69.2436 85.3238 69.2436 85.3238 69.2436 85.4304C69.5643 85.537 69.8849 85.7502 70.0986 86.0701C70.633 87.1362 71.1673 88.2023 71.488 89.3751V89.4817L71.7017 90.1214C71.8086 90.5479 71.9155 90.9743 72.1292 91.2942C72.2361 91.4008 72.2361 91.5074 72.3429 91.614C72.3429 91.614 72.3429 91.7206 72.4498 91.7206C72.8773 92.4669 73.6254 93 74.4804 93C74.801 93 75.0148 92.8934 75.3354 92.7868C75.7629 92.5735 76.1904 92.1471 76.2972 91.614C76.4041 91.0809 76.4041 90.5479 76.1904 90.0148C76.1904 89.9082 76.0835 89.9082 76.0835 89.9082C76.0835 89.8016 75.9766 89.6949 75.8698 89.5883C75.656 89.1619 75.4423 88.842 75.1216 88.5222C75.0148 88.309 74.9079 88.2023 74.6942 87.9891V87.7759C73.946 86.8164 73.4117 85.7502 72.9842 84.6841C72.8773 84.3642 72.8773 83.9378 73.0911 83.6179C73.0911 83.5113 73.1979 83.5113 73.1979 83.5113L72.8773 82.6584C78.3278 79.3533 82.4959 74.2358 84.4196 68.1588L85.2746 68.2654C85.3814 68.2654 85.3814 68.1588 85.3814 68.1588C85.5952 67.9456 85.9158 67.839 86.2364 67.839H86.3433C87.5189 68.0522 88.6945 68.3721 89.7632 68.7985H89.8701C90.0838 68.9051 90.2976 69.0117 90.5113 69.0117C90.9388 69.225 91.2595 69.4382 91.6869 69.5448C91.7938 69.5448 91.9007 69.6514 92.1144 69.6514C92.2213 69.6514 92.2213 69.6514 92.3282 69.758C92.5419 69.8647 92.6488 69.8647 92.8625 69.8647C93.8244 69.8647 94.6794 69.225 95 68.3721C94.8931 67.1993 94.0381 66.3464 93.0763 66.1331ZM62.19 62.8281L59.3045 64.2141L56.4189 62.8281L55.6708 59.7363L57.7014 57.1775H60.9075L62.9381 59.7363L62.19 62.8281ZM79.6103 55.8982C80.1447 58.1371 80.2515 60.376 80.0378 62.6149L69.8849 59.7363C68.923 59.5231 68.3887 58.5635 68.6024 57.604C68.7093 57.2841 68.8161 57.0709 69.0299 56.8577L77.0454 49.6079C78.221 51.527 79.0759 53.6593 79.6103 55.8982ZM73.8392 45.6632L65.0756 51.8468C64.3275 52.2733 63.2588 52.1667 62.7244 51.4204C62.5106 51.2071 62.4038 50.9939 62.4038 50.674L61.7625 39.906C66.4649 40.4391 70.633 42.4647 73.8392 45.6632ZM54.4952 40.2258L56.6326 39.7994L56.0983 50.4608C56.0983 51.4203 55.2433 52.1666 54.2814 52.1666C53.9608 52.1666 53.7471 52.06 53.4264 51.9534L44.556 45.6632C47.3347 42.9978 50.7546 41.0787 54.4952 40.2258ZM41.4567 49.6079L49.3653 56.6445C50.1134 57.2841 50.2203 58.3503 49.579 59.0966C49.3653 59.4164 49.1515 59.523 48.724 59.6297L38.3574 62.6149C38.0367 58.1371 39.1055 53.5526 41.4567 49.6079ZM39.6398 67.6257L50.2203 65.8133C51.0752 65.8133 51.9302 66.3464 52.0371 67.1993C52.144 67.5191 52.144 67.9456 51.9302 68.2654L47.8691 78.074C44.1285 75.6218 41.1361 71.8903 39.6398 67.6257ZM63.9 80.8459C62.4038 81.1658 60.9075 81.379 59.3045 81.379C57.0601 81.379 54.7089 80.9526 52.5715 80.3129L57.8082 70.8242C58.3426 70.1845 59.1976 69.9713 59.9457 70.3977C60.2663 70.611 60.4801 70.8242 60.8007 71.144L65.9306 80.4195C65.2893 80.5261 64.6481 80.6327 63.9 80.8459ZM76.9385 71.5705C75.3354 74.1292 73.0911 76.3681 70.5261 77.9674L66.3581 67.9456C66.1443 67.0927 66.5718 66.2398 67.3199 65.9199C67.6405 65.8133 67.9612 65.7067 68.2818 65.7067L78.9691 67.5191C78.4347 69.0117 77.7935 70.3977 76.9385 71.5705Z" fill="white"/>
</svg>
