<svg width="118" height="118" viewBox="0 0 118 118" fill="none" xmlns="http://www.w3.org/2000/svg">
<rect width="118" height="118" rx="16" fill="#1E2235"/>
<path d="M19.3939 33H97.6061C98.7714 33 99.889 33.4643 100.713 34.2907C101.537 35.1171 102 36.238 102 37.4068V80.5932C102 81.762 101.537 82.8829 100.713 83.7093C99.889 84.5357 98.7714 85 97.6061 85H19.3939C18.2286 85 17.111 84.5357 16.287 83.7093C15.4629 82.8829 15 81.762 15 80.5932V37.4068C15 36.238 15.4629 35.1171 16.287 34.2907C17.111 33.4643 18.2286 33 19.3939 33Z" stroke="white" stroke-width="5.05051"/>
<path d="M26 74V44H34.7742L43.5484 55.0294L52.3226 44H61.0968V74H52.3226V56.7941L43.5484 67.8235L34.7742 56.7941V74H26ZM80.8387 74L67.6774 59.4412H76.4516V44H85.2258V59.4412H94L80.8387 74Z" fill="white"/>
</svg>
