<svg width="118" height="118" viewBox="0 0 118 118" fill="none" xmlns="http://www.w3.org/2000/svg">
<rect width="118" height="118" rx="16" fill="#1E2235"/>
<path d="M32.7135 13H84.2865C95.1666 13 104 21.8334 104 32.7135V84.2865C104 95.1666 95.1666 104 84.2865 104H32.7135C21.8334 104 13 95.1666 13 84.2865V32.7135C13 21.8334 21.8334 13 32.7135 13Z" fill="#FFD02F"/>
<path d="M76.4911 24H66.3929L74.8035 38.7799L56.2947 24H46.1965L55.4509 42.0734L36.0982 24H26L36.0982 47L26 93H36.0982L55.4509 43.7065L46.1965 93H56.2947L74.8035 40.4402L66.3929 93H76.4911L95 35.4864L76.4911 24Z" fill="#050038"/>
</svg>
