<svg width="118" height="118" viewBox="0 0 118 118" fill="none" xmlns="http://www.w3.org/2000/svg">
<rect width="118" height="118" rx="16" fill="#1E2235"/>
<path d="M80.4658 40.8681C79.5677 39.813 78.5538 38.9024 77.4675 38.093C76.497 37.3848 75.4686 36.7633 74.3533 36.2575C73.8174 36.0117 73.2525 35.8094 72.6586 35.6215C71.804 35.3469 70.877 35.159 69.921 35H57.8699L49.9034 44.0623V43.0072V35.1879H33V83H49.9034V62.4905V50.7398H52.2499H56.9574H65.5757H65.7785L67.0966 50.7109V82.9855H84V53.0813C84 50.5375 83.7538 48.2683 83.2613 46.2737C82.7688 44.2936 81.8418 42.5014 80.4658 40.8681Z" fill="white"/>
</svg>
