<svg width="118" height="118" viewBox="0 0 118 118" fill="none" xmlns="http://www.w3.org/2000/svg">
<rect width="118" height="118" rx="16" fill="#1E2235"/>
<path d="M19.7204 15.0964L72.3293 11.2166C78.7894 10.6617 80.4517 11.0334 84.5121 13.9874L101.306 25.8076C104.077 27.8403 105 28.3936 105 30.6094V95.4394C105 99.5024 103.522 101.905 98.3547 102.273L37.2607 105.967C33.3818 106.153 31.5357 105.599 29.5044 103.012L17.1375 86.943C14.9215 83.9855 14 81.7724 14 79.1835V21.5584C14 18.2358 15.4783 15.4643 19.7204 15.0964Z" fill="white"/>
<path fill-rule="evenodd" clip-rule="evenodd" d="M72.3293 11.2166L19.7204 15.0964C15.4783 15.4643 14 18.2358 14 21.5584V79.1835C14 81.7724 14.9215 83.9855 17.1375 86.943L29.5044 103.012C31.5357 105.599 33.3818 106.153 37.2607 105.967L98.3547 102.273C103.522 101.905 105 99.5024 105 95.4394V30.6094C105 28.5092 104.17 27.9025 101.724 26.114C101.589 26.0156 101.45 25.9136 101.306 25.8076L84.5121 13.9874C80.4517 11.0334 78.7894 10.6617 72.3293 11.2166ZM38.646 29.5461C33.658 29.8834 32.5246 29.96 29.692 27.6555L22.4887 21.9301C21.754 21.1897 22.1225 20.2661 23.967 20.083L74.5444 16.3887C78.7887 16.0185 81.0033 17.4985 82.6654 18.7907L91.3402 25.071C91.7095 25.255 92.6308 26.3618 91.5229 26.3618L39.2897 29.5027C39.07 29.5174 38.8569 29.5318 38.6505 29.5458L38.6467 29.546L38.646 29.5461ZM32.828 94.8842V39.8461C32.828 37.4455 33.5664 36.3365 35.7802 36.1501L95.7682 32.6421C97.8027 32.4574 98.724 33.7511 98.724 36.1501V90.8188C98.724 93.2218 98.354 95.2564 95.0303 95.4394L37.6262 98.7655C34.304 98.9486 32.828 97.8421 32.828 94.8842ZM89.4972 42.7984C89.8653 44.4624 89.4972 46.1247 87.8328 46.3118L85.0668 46.8637V87.4963C82.6654 88.789 80.451 89.5277 78.6057 89.5277C75.6513 89.5277 74.9113 88.6036 72.6983 85.8346L54.6066 57.3916V84.9112L60.3315 86.205C60.3315 86.205 60.3315 89.5277 55.7126 89.5277L42.9796 90.2677C42.6096 89.5277 42.9796 87.6824 44.2712 87.3125L47.594 86.3904V50.0047L42.9803 49.6344C42.6103 47.9703 43.5319 45.5714 46.118 45.3851L59.7776 44.4631L78.6057 73.2764V47.7871L73.8053 47.2354C73.4367 45.2013 74.9113 43.7241 76.7573 43.5411L89.4972 42.7984Z" fill="#000008"/>
</svg>
