<svg width="118" height="118" viewBox="0 0 118 118" fill="none" xmlns="http://www.w3.org/2000/svg">
<rect width="118" height="118" rx="16" fill="#1E2235"/>
<path d="M107.472 68.9022C106.89 67.1365 105.367 65.9067 103.398 65.6116C102.469 65.4726 101.406 65.5319 100.147 65.792C97.9532 66.2459 96.3257 66.4187 95.138 66.4521C99.6212 58.8619 103.267 50.2063 105.365 42.0585C108.759 28.8837 106.946 22.8818 104.826 20.167C99.2183 12.9812 91.0361 9.12098 81.1652 9.00286C75.8994 8.93829 71.2768 9.98084 68.8653 10.7306C66.62 10.3333 64.2059 10.1115 61.6728 10.0705C56.9244 9.99451 52.729 11.0325 49.1442 13.1658C47.1595 12.4928 43.9742 11.5441 40.2958 10.9387C31.6444 9.51445 24.6716 10.6242 19.5714 14.2372C13.3955 18.6117 10.5325 26.2122 11.062 36.8276C11.2302 40.1979 13.1103 50.4524 16.0706 60.1775C17.7719 65.7673 19.5862 70.4092 21.4629 73.9755C24.1243 79.0325 26.9722 82.0105 30.1692 83.08C31.961 83.6786 35.2168 84.0978 38.6411 81.238C39.0751 81.7651 39.6542 82.2889 40.4227 82.7754C41.3987 83.3926 42.5922 83.8969 43.7841 84.1958C48.0795 85.2726 52.1029 85.0033 55.5356 83.494C55.5568 84.1062 55.573 84.6911 55.5867 85.1962C55.6094 86.0154 55.6321 86.8187 55.6621 87.57C55.8654 92.6494 56.2101 96.5989 57.2312 99.3623C57.2873 99.5142 57.3626 99.7459 57.4422 99.9916C57.9516 101.556 58.8034 104.174 60.9706 106.224C63.2147 108.349 65.9292 109 68.4153 109C69.6622 109 70.8518 108.836 71.8953 108.612C75.6146 107.812 79.8388 106.595 82.8945 102.232C85.7836 98.107 87.188 91.8947 87.4422 82.1062C87.4751 81.8293 87.5054 81.565 87.5346 81.3132L87.5952 80.7959L88.2758 80.8559L88.4512 80.8677C92.2394 81.0409 96.8715 80.2353 99.7163 78.9102C101.964 77.8642 109.168 74.0507 107.472 68.9022" fill="black"/>
<path d="M100.994 69.9043C89.7303 72.2343 88.9558 68.4101 88.9558 68.4101C100.849 50.7142 105.82 28.2519 101.53 22.7543C89.8254 7.758 69.5641 14.8503 69.2259 15.0342L69.1172 15.0539C66.8917 14.5906 64.4014 14.3148 61.6021 14.2689C56.5056 14.1853 52.6393 15.6088 49.7055 17.8397C49.7055 17.8397 13.5614 2.90837 15.2427 36.6184C15.6002 43.7898 25.4932 90.8812 37.2927 76.6574C41.6056 71.4561 45.773 67.0584 45.773 67.0584C47.8424 68.4371 50.3202 69.1405 52.9177 68.8879L53.1196 68.7163C53.0567 69.3619 53.0855 69.9935 53.2002 70.7413C50.1604 74.147 51.0539 74.7448 44.9772 75.9993C38.8282 77.2701 42.4403 79.5321 44.7988 80.1239C47.658 80.8405 54.2725 81.8561 58.7417 75.5822L58.5637 76.2982C59.7545 77.2549 60.5908 82.5204 60.4507 87.2941C60.3105 92.0673 60.217 95.3446 61.1551 97.9045C62.0941 100.464 63.0292 106.224 71.0178 104.508C77.6925 103.073 81.1516 99.356 81.633 93.1555C81.9743 88.7475 82.7473 89.3993 82.7958 85.4581L83.4158 83.5925C84.1305 77.6172 83.5294 75.6893 87.6415 76.586L88.6414 76.6742C91.6676 76.812 95.6293 76.1857 97.9545 75.1022C102.961 72.7725 105.93 68.8822 100.994 69.9043H100.994" fill="#336791"/>
<path d="M51.8211 39.8264C50.806 39.6847 49.8868 39.8158 49.4217 40.169C49.1604 40.3676 49.0793 40.5978 49.0574 40.7561C48.999 41.1758 49.2922 41.6399 49.4725 41.8792C49.9823 42.5567 50.7269 43.0224 51.4639 43.1249C51.5707 43.1401 51.6772 43.1469 51.7828 43.1469C53.0119 43.1469 54.1296 42.1872 54.228 41.4789C54.3511 40.5917 53.0668 40.0004 51.8211 39.8268V39.8264ZM85.448 39.8545C85.3511 39.1591 84.1171 38.9609 82.946 39.1242C81.7764 39.2875 80.6425 39.8169 80.7371 40.5138C80.8129 41.0558 81.7889 41.981 82.9441 41.981C83.0418 41.981 83.1403 41.9745 83.2395 41.9605C84.0107 41.8534 84.5765 41.3623 84.8454 41.0793C85.2545 40.6479 85.4916 40.1671 85.448 39.8545" fill="white"/>
<path d="M104.743 69.6393C104.313 68.337 102.931 67.9181 100.634 68.3936C93.8146 69.8049 91.3724 68.8273 90.5706 68.2352C95.8712 60.1379 100.232 50.3497 102.584 41.2175C103.698 36.8916 104.314 32.8741 104.364 29.5995C104.42 26.0055 103.809 23.3643 102.55 21.751C97.4745 15.2469 90.0244 11.7581 81.0064 11.6624C74.8066 11.5925 69.5685 13.1835 68.5531 13.6309C66.4146 13.0976 64.0834 12.7703 61.5454 12.7285C56.8913 12.6529 52.8682 13.7703 49.5375 16.0479C48.0907 15.5078 44.3517 14.2207 39.779 13.482C31.8737 12.2059 25.5918 13.1728 21.1089 16.3575C15.7598 20.1577 13.2903 26.9508 13.7687 36.5475C13.9297 39.7762 15.7643 49.7086 18.6595 59.2207C22.4705 71.7403 26.6133 78.8278 30.9719 80.2858C31.4821 80.4563 32.0703 80.5756 32.7191 80.5756C34.3091 80.5756 36.2585 79.857 38.2867 77.4119C40.7606 74.436 43.3196 71.5323 45.9606 68.7046C47.6741 69.6268 49.5565 70.1418 51.4816 70.1934C51.4854 70.2439 51.4904 70.2944 51.4949 70.3446C51.1635 70.7409 50.839 71.1429 50.5215 71.5504C49.1876 73.2485 48.9099 73.6021 44.616 74.4886C43.3946 74.7415 40.1506 75.4118 40.1028 77.6922C40.0513 80.1836 43.9377 81.23 44.3805 81.3409C45.9235 81.7283 47.4101 81.9193 48.8277 81.9193C52.2755 81.9193 55.3097 80.7829 57.7344 78.5843C57.6598 87.4662 58.0291 96.2183 59.0926 98.8849C59.9638 101.068 62.0916 106.403 68.8129 106.403C69.7992 106.403 70.8847 106.288 72.0789 106.031C79.0937 104.523 82.14 101.414 83.3183 94.5597C83.9489 90.8966 85.031 82.1495 85.54 77.4574C86.6142 77.7936 87.997 77.9474 89.4919 77.947C92.6098 77.947 96.2075 77.2827 98.4637 76.2326C100.998 75.0522 105.572 72.1558 104.743 69.6393V69.6393ZM88.0375 37.9338C88.0144 39.3189 87.8243 40.5764 87.6228 41.889C87.4057 43.3007 87.1815 44.7603 87.1251 46.532C87.0694 48.2563 87.2842 50.0489 87.4917 51.7827C87.9114 55.2845 88.342 58.8895 86.6751 62.4467C86.3982 61.9547 86.1516 61.4462 85.9366 60.9241C85.7294 60.4205 85.2794 59.6115 84.6564 58.4918C82.2328 54.1333 76.5572 43.9266 79.4626 39.7617C80.328 38.5221 82.5244 37.2475 88.0375 37.9338V37.9338ZM81.3548 14.4672C89.4351 14.6461 95.8269 17.6772 100.352 23.476C103.823 27.9238 100.001 48.1621 88.9367 65.6218C88.8254 65.4799 88.7135 65.3385 88.6011 65.1976L88.4609 65.0221C91.3201 60.2872 90.7611 55.6023 90.2634 51.4489C90.0589 49.7443 89.8657 48.1344 89.915 46.622C89.9657 45.0193 90.1771 43.6444 90.3816 42.3151C90.6327 40.677 90.8884 38.982 90.8179 36.9839C90.8706 36.7742 90.8918 36.5266 90.8641 36.2327C90.6842 34.3166 88.5026 28.582 84.0561 23.3917C81.6237 20.5527 78.0767 17.3757 73.2337 15.2329C75.3168 14.7999 78.1654 14.3962 81.3548 14.4672V14.4672ZM36.1404 75.6223C33.9057 78.3165 32.3627 77.8 31.8552 77.6306C28.5487 76.5247 24.7119 69.5166 21.3293 58.4037C18.4023 48.788 16.6919 39.1187 16.5563 36.4074C16.1291 27.8323 18.202 21.8562 22.7178 18.6446C30.0671 13.4186 42.15 16.5466 47.0052 18.133C46.9355 18.2021 46.8628 18.2667 46.7939 18.337C38.8265 26.4054 39.0155 40.1905 39.0351 41.0333C39.0344 41.3584 39.0617 41.8187 39.0988 42.4518C39.2359 44.7705 39.4912 49.0858 38.8094 53.9726C38.1761 58.5139 39.5722 62.9587 42.639 66.1676C42.9537 66.4963 43.2845 66.8091 43.6301 67.1049C42.2651 68.5709 39.2984 71.8129 36.1404 75.6223V75.6223ZM44.6543 64.231C42.1826 61.6446 41.0599 58.0471 41.5739 54.36C42.2935 49.1978 42.028 44.7018 41.8852 42.2863C41.8652 41.9482 41.8474 41.652 41.8371 41.4184C43.001 40.3835 48.3948 37.4856 52.2414 38.3694C53.9965 38.7724 55.0661 39.971 55.5108 42.0325C57.8121 52.706 55.8153 57.1546 54.2109 60.7296C53.8803 61.466 53.5678 62.1622 53.3012 62.8823L53.0944 63.4391C52.5709 64.8466 52.0839 66.1554 51.782 67.3981C49.1542 67.3905 46.598 66.2648 44.6543 64.2306V64.231ZM45.0577 78.6253C44.2903 78.4331 43.6002 78.0993 43.1953 77.8224C43.5336 77.6629 44.1354 77.4457 45.1792 77.2299C50.2306 76.1874 51.0109 75.4513 52.7145 73.2823C53.105 72.7848 53.5477 72.2212 54.1609 71.5345L54.1617 71.5337C55.0748 70.5083 55.4926 70.6822 56.2501 70.9975C56.8641 71.2519 57.4621 72.0237 57.7045 72.8729C57.8193 73.274 57.9481 74.0351 57.5265 74.6276C53.9678 79.6242 48.7819 79.56 45.0577 78.6253V78.6253ZM71.4941 103.294C65.3144 104.622 63.1263 101.46 61.6844 97.8454C60.7538 95.5119 60.2963 84.9892 60.6209 73.3685C60.6251 73.214 60.6031 73.0647 60.5607 72.9242C60.5227 72.6467 60.465 72.3723 60.388 72.103C59.9054 70.4122 58.7294 68.9978 57.3186 68.4114C56.758 68.1786 55.7293 67.7513 54.4931 68.0685C54.7567 66.9792 55.2139 65.749 55.7096 64.4171L55.9176 63.8569C56.1516 63.2253 56.4456 62.5709 56.7561 61.8781C58.4351 58.1379 60.7345 53.0148 58.2389 41.4412C57.3042 37.1062 54.1825 34.9892 49.4504 35.481C46.6136 35.7754 44.018 36.9231 42.7234 37.5813C42.445 37.7226 42.1905 37.8593 41.9527 37.9923C42.314 33.6246 43.679 25.462 48.7853 20.2975C52.0005 17.0464 56.2823 15.4406 61.4992 15.5272C71.7785 15.6958 78.3703 20.9857 82.0904 25.394C85.2961 29.1923 87.0319 33.0188 87.7247 35.0826C82.5149 34.5513 78.9717 35.5824 77.1757 38.1575C73.2681 43.7587 79.3134 54.6301 82.2188 59.8549C82.7517 60.8124 83.2115 61.64 83.3561 61.9917C84.3023 64.291 85.5271 65.8261 86.4214 66.9465C86.6956 67.2899 86.9615 67.6229 87.1637 67.9139C85.5859 68.37 82.7517 69.4239 83.01 74.6921C82.8017 77.3355 81.3204 89.7116 80.5678 94.0842C79.5743 99.861 77.4545 102.013 71.4941 103.294V103.294ZM97.2885 73.694C95.675 74.4449 92.9749 75.0081 90.41 75.1293C87.5769 75.2622 86.1347 74.811 85.7953 74.5334C85.6362 71.2504 86.8547 70.9074 88.1443 70.5444C88.3469 70.4874 88.5446 70.4316 88.7355 70.3647C88.8541 70.4616 88.984 70.5576 89.1264 70.6518C91.4035 72.1589 95.4648 72.3214 101.199 71.1346L101.262 71.122C100.488 71.8471 99.1648 72.8201 97.2885 73.694Z" fill="white"/>
</svg>
