<svg width="118" height="118" viewBox="0 0 118 118" fill="none" xmlns="http://www.w3.org/2000/svg">
<g id="postman">
<g id="Tech Stack Logos">
<rect width="118" height="118" rx="16" fill="#1E2235"/>
</g>
<g id="postman_2">
<path id="Vector" d="M98.5728 28.4394C92.5282 20.6121 84.2981 14.7531 74.9235 11.6035C65.5488 8.45386 55.4507 8.15504 45.9062 10.7448C36.3617 13.3346 27.7996 18.6967 21.3027 26.1529C14.8059 33.6091 10.6661 42.8245 9.40695 52.6336C8.14781 62.4428 9.82587 72.405 14.2289 81.2603C18.6319 90.1157 25.5622 97.4665 34.1431 102.383C42.7241 107.299 52.5703 109.561 62.4365 108.881C72.3027 108.201 81.7457 104.611 89.5713 98.5638C111.415 81.6827 115.446 50.2908 98.5712 28.4394H98.5728Z" fill="#FF6C37"/>
<path id="Vector_2" d="M75.8635 40.8597L54.781 62.1095L48.8232 55.9846C69.5729 35.2347 71.6557 37.1097 75.865 40.8597H75.8635Z" fill="white"/>
<path id="Vector_3" d="M54.7808 62.6909C54.5941 62.6864 54.4158 62.6123 54.2809 62.4831L48.2809 56.4832C48.1458 56.3434 48.0703 56.1565 48.0703 55.9621C48.0703 55.7677 48.1458 55.5808 48.2809 55.441C68.7385 34.9834 71.5307 35.9412 76.3635 40.3161C76.4444 40.3809 76.5091 40.4636 76.5525 40.5577C76.5959 40.6518 76.6168 40.7547 76.6135 40.8583C76.6447 41.0615 76.5666 41.2693 76.4057 41.4005L55.323 62.4847C55.1752 62.6202 54.9814 62.6945 54.7808 62.6925V62.6909ZM49.8637 55.9832L54.7808 60.9003L74.7807 40.9005C74.0901 40.0351 73.1048 39.4547 72.0131 39.2702C70.9215 39.0857 69.8001 39.3101 68.8635 39.9005C65.2386 41.5255 59.4058 46.4833 49.8637 55.9832V55.9832Z" fill="#FF6C37"/>
<path id="Vector_4" d="M60.823 67.9824L55.073 62.1075L76.1557 41.2734C81.8229 46.8155 73.4057 56.0654 60.823 67.9809V67.9824Z" fill="white"/>
<path id="Vector_5" d="M60.8231 68.7337C60.6387 68.719 60.4636 68.6462 60.3231 68.5259L54.4482 62.7759C54.3601 62.5623 54.3601 62.3224 54.4482 62.1087C54.3857 61.9334 54.3857 61.7419 54.4482 61.5666L75.5308 40.484C75.6774 40.3462 75.871 40.2695 76.0722 40.2695C76.2734 40.2695 76.467 40.3462 76.6136 40.484C77.2964 41.1124 77.8358 41.8804 78.1952 42.7359C78.5546 43.5914 78.7255 44.5143 78.6964 45.4417C78.6964 51.0667 72.2793 58.1494 61.3637 68.4837C61.2179 68.628 61.026 68.7165 60.8216 68.7337H60.8231ZM56.156 62.1087L60.8637 66.8149C69.1965 58.94 77.1558 50.8151 77.1964 45.3152C77.2417 44.1492 76.8563 43.0074 76.1136 42.1074L56.156 62.1087Z" fill="#FF6C37"/>
<path id="Vector_6" d="M48.9889 56.1063L53.1561 60.2734C53.1827 60.2968 53.204 60.3257 53.2186 60.358C53.2332 60.3904 53.2407 60.4254 53.2407 60.4609C53.2407 60.4964 53.2332 60.5314 53.2186 60.5637C53.204 60.5961 53.1827 60.6249 53.1561 60.6484L44.364 62.5234C44.1865 62.5617 44.0014 62.5409 43.8368 62.4643C43.6722 62.3877 43.5371 62.2593 43.4522 62.0989C43.3673 61.9384 43.3371 61.7545 43.3663 61.5753C43.3955 61.3961 43.4825 61.2314 43.614 61.1062L48.7389 56.0234C48.7389 56.0234 48.9061 56.0234 48.9889 56.1063Z" fill="white"/>
<path id="Vector_7" d="M44.156 63.359C43.8782 63.3555 43.6059 63.2809 43.3652 63.1422C43.1245 63.0035 42.9234 62.8054 42.781 62.5668C42.6208 62.2646 42.5627 61.9187 42.6153 61.5808C42.668 61.2428 42.8286 60.931 43.0732 60.6919L48.1559 55.5669C48.3392 55.4031 48.5765 55.3125 48.8223 55.3125C49.0682 55.3125 49.3054 55.4031 49.4887 55.5669L53.6559 59.7341C53.9027 59.9684 53.9996 60.3231 53.9059 60.6512C53.8121 60.9794 53.5371 61.2403 53.1981 61.3184L44.406 63.1934L44.156 63.359ZM48.8231 57.0263L44.1154 61.734L51.9074 60.0669L48.8231 57.0263Z" fill="#FF6C37"/>
<path id="Vector_8" d="M87.0731 29.149C84.0575 26.2397 79.3199 26.1178 76.1574 28.8631C72.9949 31.6084 72.4542 36.3208 74.9168 39.7114C77.3793 43.102 82.0215 44.052 85.6153 41.8989L79.9481 36.2318L87.0731 29.149Z" fill="white"/>
<path id="Vector_9" d="M81.448 43.8142C79.7154 43.792 78.0277 43.2605 76.5951 42.2858C75.1626 41.3111 74.0485 39.9364 73.3917 38.333C72.7354 36.7308 72.5633 34.9714 72.8965 33.2724C73.2298 31.5733 74.0538 30.0093 75.2667 28.7737C76.9349 27.1362 79.1791 26.2187 81.5167 26.2188C83.8543 26.2188 86.0986 27.1362 87.7667 28.7737C87.9261 28.9081 88.0167 29.1065 88.0167 29.3159C88.0163 29.4189 87.9938 29.5206 87.9507 29.6142C87.9076 29.7077 87.8448 29.7909 87.7667 29.8581L81.0167 36.233L86.1417 41.2752C86.2248 41.3545 86.2871 41.4529 86.3233 41.5619C86.3596 41.6708 86.3686 41.787 86.3495 41.9002C86.3372 42.0094 86.301 42.1146 86.2435 42.2083C86.186 42.302 86.1086 42.3819 86.0167 42.4424C84.6399 43.303 83.0571 43.7778 81.4339 43.8174L81.448 43.8142ZM81.448 27.6472C78.4792 27.6628 75.823 29.4487 74.7089 32.1784C73.5949 34.908 74.2011 38.0502 76.2824 40.1471C77.3176 41.1883 78.6431 41.8926 80.0853 42.1678C81.5276 42.443 83.0193 42.2762 84.3652 41.6892L79.448 36.7721C79.3698 36.7096 79.3067 36.6303 79.2633 36.5401C79.22 36.4499 79.1975 36.3511 79.1975 36.251C79.1975 36.1509 79.22 36.0521 79.2633 35.9619C79.3067 35.8717 79.3698 35.7924 79.448 35.7299L85.948 29.1878C84.6559 28.1975 83.0759 27.656 81.448 27.6456V27.6472Z" fill="#FF6C37"/>
<path id="Vector_10" d="M87.1976 29.2734L80.0728 36.3562L85.7398 42.0233C86.3102 41.6958 86.8412 41.3042 87.3226 40.8561C88.8079 39.2862 89.6251 37.2006 89.6018 35.0395C89.5785 32.8784 88.7164 30.811 87.1976 29.2734V29.2734Z" fill="white"/>
<path id="Vector_11" d="M85.6135 42.6478C85.5199 42.6529 85.4263 42.6369 85.3398 42.6009C85.2532 42.5649 85.1759 42.5099 85.1135 42.44L79.4463 36.7729C79.3682 36.7104 79.3051 36.6311 79.2617 36.5409C79.2183 36.4507 79.1958 36.3519 79.1958 36.2518C79.1958 36.1517 79.2183 36.0529 79.2617 35.9627C79.3051 35.8725 79.3682 35.7932 79.4463 35.7307L86.5291 28.7729C86.5975 28.6698 86.6904 28.5852 86.7994 28.5267C86.9085 28.4681 87.0303 28.4375 87.1541 28.4375C87.2778 28.4375 87.3997 28.4681 87.5087 28.5267C87.6178 28.5852 87.7107 28.6698 87.7791 28.7729C88.6106 29.5876 89.2711 30.56 89.7221 31.6332C90.173 32.7064 90.4053 33.8588 90.4053 35.0229C90.4053 36.187 90.173 37.3394 89.7221 38.4125C89.2711 39.4857 88.6106 40.4581 87.7791 41.2728C87.2886 41.7931 86.7274 42.2417 86.1119 42.6056C85.9569 42.6838 85.7778 42.6989 85.6119 42.6478H85.6135ZM81.0307 36.2322L85.7385 40.94C86.0623 40.713 86.3689 40.4624 86.6556 40.19C88.0396 38.8099 88.8191 36.9368 88.8228 34.9823C88.826 33.2331 88.1885 31.5434 87.0306 30.2323L81.0307 36.2322Z" fill="#FF6C37"/>
<path id="Vector_12" d="M76.7387 41.7312C76.1744 41.2012 75.4293 40.9062 74.6551 40.9062C73.881 40.9063 73.1359 41.2012 72.5715 41.7312L53.6982 60.5623L56.8232 63.7295L76.7809 46.2296C77.0852 45.9379 77.3267 45.587 77.4903 45.1985C77.6539 44.81 77.7363 44.3921 77.7324 43.9705C77.7284 43.549 77.6382 43.1327 77.4673 42.7473C77.2964 42.3619 77.0485 42.0156 76.7387 41.7296V41.7312Z" fill="white"/>
<path id="Vector_13" d="M56.6561 64.4829C56.4693 64.4784 56.291 64.4042 56.1561 64.2751L52.9889 61.108C52.8538 60.9681 52.7783 60.7813 52.7783 60.5869C52.7783 60.3925 52.8538 60.2056 52.9889 60.0658L71.8637 41.2738C72.4074 40.7308 73.1017 40.3636 73.8565 40.22C74.6113 40.0763 75.3919 40.1627 76.097 40.468C76.8021 40.7734 77.3992 41.2835 77.8109 41.9323C78.2226 42.5811 78.4299 43.3386 78.4059 44.1066C78.3842 44.6278 78.2588 45.1396 78.0369 45.6118C77.815 46.084 77.5012 46.5072 77.1137 46.8565L57.1561 64.3564C57.0109 64.4591 56.8325 64.5037 56.6561 64.4814V64.4829ZM54.4483 60.5642L56.5311 62.6892L76.1137 45.6472C76.5981 45.2253 76.8871 44.6222 76.9059 43.98C76.9246 43.3378 76.6715 42.7097 76.1981 42.2722C75.7609 41.8368 75.169 41.5924 74.552 41.5924C73.935 41.5924 73.3431 41.8368 72.9059 42.2722L54.4483 60.5642Z" fill="#FF6C37"/>
<path id="Vector_14" d="M39.0733 82.0217C39.02 82.0942 38.9913 82.1818 38.9913 82.2717C38.9913 82.3617 39.02 82.4493 39.0733 82.5217L39.9061 86.1467C39.9395 86.36 39.9079 86.5785 39.8153 86.7735C39.7228 86.9686 39.5737 87.1313 39.3874 87.2405C39.2017 87.349 38.9864 87.3959 38.7725 87.3743C38.5585 87.3527 38.3569 87.2637 38.1968 87.1201L32.489 81.6202L50.281 63.6875H56.4481L60.6152 67.8547C54.1149 73.5381 46.8669 78.3047 39.0733 82.0217V82.0217Z" fill="white"/>
<path id="Vector_15" d="M38.6983 88.1489C38.2264 88.1395 37.7608 87.9458 37.4483 87.6067L31.9905 82.149C31.9124 82.0865 31.8492 82.0072 31.8059 81.917C31.7625 81.8268 31.74 81.728 31.74 81.6279C31.74 81.5278 31.7625 81.429 31.8059 81.3388C31.8492 81.2486 31.9124 81.1693 31.9905 81.1068L49.906 63.1491C50.0063 63.0425 50.1374 62.9699 50.281 62.9413H56.4887C56.6505 62.8841 56.827 62.8841 56.9887 62.9413L61.1559 67.1085C61.2351 67.1815 61.2954 67.2727 61.3316 67.3743C61.3678 67.4758 61.3788 67.5846 61.3637 67.6913C61.3666 67.7948 61.3456 67.8976 61.3022 67.9917C61.2589 68.0857 61.1943 68.1685 61.1137 68.2335L60.7809 68.5257C54.2543 73.9667 47.0738 78.5716 39.4061 82.2333L40.1983 85.6083C40.2595 85.8687 40.2618 86.1394 40.2051 86.4008C40.1484 86.6622 40.0341 86.9076 39.8704 87.1191C39.7068 87.3307 39.498 87.503 39.2592 87.6236C39.0205 87.7442 38.7579 87.81 38.4905 87.8161L38.6983 88.1489ZM33.6155 81.6068L38.5311 86.5646C38.5769 86.6054 38.6361 86.628 38.6975 86.628C38.7589 86.628 38.8181 86.6054 38.8639 86.5646C38.8945 86.522 38.911 86.4709 38.911 86.4185C38.911 86.366 38.8945 86.3149 38.8639 86.2724L38.0311 82.6474C37.9655 82.3872 37.9918 82.1124 38.1058 81.8695C38.2197 81.6266 38.4141 81.4305 38.6561 81.3146C46.1176 77.7017 53.113 73.1964 59.4887 67.8975L56.0716 64.4804H50.4888L33.6155 81.6068Z" fill="#FF6C37"/>
<path id="Vector_16" d="M28.1983 85.8976L32.3654 81.7305L38.7825 88.1476L28.5748 87.4398C28.3996 87.426 28.2331 87.3573 28.0993 87.2433C27.9654 87.1294 27.8709 86.9761 27.8293 86.8053C27.7878 86.6345 27.8012 86.4549 27.8677 86.2922C27.9343 86.1295 28.0505 85.9919 28.1998 85.8992L28.1983 85.8976Z" fill="white"/>
<path id="Vector_17" d="M38.906 88.7723L28.739 88.0645C28.1359 88.0082 27.6171 87.5957 27.4046 87.0442C27.1921 86.4926 27.3218 85.8379 27.739 85.3973L31.9061 81.2301C32.046 81.095 32.2328 81.0195 32.4272 81.0195C32.6216 81.0195 32.8085 81.095 32.9483 81.2301L39.3232 87.6051C39.4115 87.726 39.459 87.8718 39.459 88.0215C39.459 88.1712 39.4115 88.317 39.3232 88.4379C39.2268 88.5938 39.0794 88.7114 38.906 88.7707V88.7723ZM28.739 86.4395L37.0717 86.9817L32.4889 82.6895L28.739 86.4395Z" fill="#FF6C37"/>
<path id="Vector_18" d="M57.0308 64.1929L48.6138 65.4851L53.4887 60.6523L57.0308 64.1929Z" fill="white"/>
<path id="Vector_19" d="M48.6138 66.2731C48.4739 66.2767 48.336 66.2391 48.2174 66.1649C48.0987 66.0907 48.0046 65.9833 47.9466 65.8559C47.8579 65.7352 47.8101 65.5893 47.8101 65.4395C47.8101 65.2897 47.8579 65.1438 47.9466 65.0231L52.7793 60.1481C52.9259 60.0103 53.1196 59.9336 53.3207 59.9336C53.5219 59.9336 53.7155 60.0103 53.8621 60.1481L57.4058 63.6887C57.4766 63.801 57.5141 63.931 57.5141 64.0637C57.5141 64.1964 57.4766 64.3264 57.4058 64.4387C57.3711 64.5755 57.2976 64.6994 57.1942 64.7956C57.0909 64.8918 56.962 64.9561 56.823 64.9809L48.4904 66.2731H48.6138ZM53.4887 61.7309L50.7809 64.4387L55.448 63.7309L53.4887 61.7309Z" fill="#FF6C37"/>
<path id="Vector_20" d="M57.0309 64.1906L51.156 64.9406C50.9988 64.9763 50.8342 64.9604 50.6868 64.8952C50.5393 64.8301 50.4168 64.7191 50.3374 64.5788C50.2579 64.4385 50.2258 64.2764 50.2458 64.1164C50.2657 63.9564 50.3367 63.8071 50.4482 63.6906L53.4903 60.6484L57.0309 64.1906Z" fill="white"/>
<path id="Vector_21" d="M50.9887 65.7333C50.7164 65.7307 50.4496 65.6561 50.2155 65.5169C49.9814 65.3778 49.7883 65.1791 49.6559 64.9411C49.4968 64.6559 49.4351 64.3266 49.4802 64.0031C49.5253 63.6797 49.6748 63.3798 49.9059 63.149L52.948 60.1068C53.0947 59.969 53.2883 59.8923 53.4894 59.8923C53.6906 59.8923 53.8842 59.969 54.0308 60.1068L57.573 63.649C57.6783 63.7488 57.7525 63.877 57.7864 64.0181C57.8203 64.1592 57.8126 64.3071 57.7641 64.4439C57.7156 64.5806 57.6285 64.7004 57.5134 64.7887C57.3982 64.877 57.2599 64.9299 57.1152 64.9411L51.2824 65.6911L50.9887 65.7333ZM50.9887 64.1912L55.4058 63.649L53.448 61.6912L50.9481 64.1912H50.9887ZM87.2384 34.0663C87.1599 33.9349 87.0358 33.8368 86.8898 33.7907C86.7438 33.7446 86.5859 33.7537 86.4462 33.8163C86.3772 33.8513 86.316 33.8997 86.266 33.9588C86.2161 34.0178 86.1786 34.0863 86.1556 34.1601C86.1092 34.3091 86.1238 34.4703 86.1962 34.6085C86.4884 35.2226 86.4071 35.9491 85.9884 36.4835C85.9364 36.535 85.8956 36.5967 85.8687 36.6648C85.8418 36.7328 85.8294 36.8057 85.8321 36.8788C85.8336 37.0254 85.8893 37.1662 85.9884 37.2741C86.0953 37.3164 86.2143 37.3164 86.3212 37.2741C86.4182 37.2985 86.5201 37.2958 86.6157 37.2664C86.7113 37.2369 86.7969 37.1817 86.8634 37.107C87.2065 36.6869 87.4237 36.1783 87.4901 35.64C87.5565 35.1017 87.4692 34.5556 87.2384 34.0648V34.0663Z" fill="#FF6C37"/>
</g>
</g>
</svg>
