<svg width="118" height="118" viewBox="0 0 118 118" fill="none" xmlns="http://www.w3.org/2000/svg">
<rect width="118" height="118" rx="16" fill="#1E2235"/>
<path d="M97.5913 50.0124H70.3942C69.4888 50.0181 68.6187 49.661 67.9784 49.0207C67.3381 48.3804 66.9809 47.5103 66.9866 46.6048V19.4078C66.9866 18.5059 66.627 17.6414 65.9873 17.0057C65.3476 16.37 64.4808 16.0158 63.579 16.0214H53.3987C52.497 16.0158 51.6301 16.37 50.9905 17.0057C50.3508 17.6414 49.9911 18.5059 49.9911 19.4078V46.6048C49.9968 47.5103 49.6397 48.3804 48.9994 49.0207C48.3591 49.661 47.489 50.0181 46.5835 50.0124H36.4033C35.4978 50.0181 34.6277 49.661 33.9874 49.0207C33.3471 48.3804 32.9899 47.5103 32.9956 46.6048V19.4078C33.0013 18.5023 32.6442 17.6322 32.0039 16.9919C31.3636 16.3516 30.4935 15.9944 29.588 16.0001H19.3865C18.4846 16.0001 17.6201 16.3598 16.9844 16.9995C16.3487 17.6392 15.9945 18.506 16.0001 19.4078V97.6126C15.9944 98.5181 16.3516 99.3882 16.9919 100.028C17.6322 100.669 18.5023 101.026 19.4078 101.02H97.5913C98.4968 101.026 99.3669 100.669 100.007 100.028C100.647 99.3882 101.005 98.5181 100.999 97.6126V53.4839C101.022 52.5675 100.673 51.6808 100.03 51.0265C99.3881 50.3723 98.5081 50.0064 97.5913 50.0124ZM83.9183 78.892C83.9239 80.2457 83.3901 81.5458 82.4349 82.505C81.4797 83.4642 80.1818 84.0034 78.8281 84.0034H72.0129C70.6592 84.0034 69.3612 83.4642 68.406 82.505C67.4508 81.5458 66.9171 80.2457 66.9227 78.892V72.0981C66.9171 70.7444 67.4508 69.4442 68.406 68.485C69.3612 67.5258 70.6592 66.9866 72.0129 66.9866H78.8281C80.1818 66.9866 81.4797 67.5258 82.4349 68.485C83.3901 69.4442 83.9239 70.7444 83.9183 72.0981V78.892Z" fill="#FF6600"/>
</svg>
