<svg width="118" height="118" viewBox="0 0 118 118" fill="none" xmlns="http://www.w3.org/2000/svg">
<rect width="118" height="118" rx="16" fill="#1E2235"/>
<path d="M59.3067 67.8161C64.1758 67.8161 68.1229 63.8689 68.1229 58.9998C68.1229 54.1308 64.1758 50.1836 59.3067 50.1836C54.4376 50.1836 50.4905 54.1308 50.4905 58.9998C50.4905 63.8689 54.4376 67.8161 59.3067 67.8161Z" fill="#61DAFB"/>
<path d="M59.3066 77.0626C85.4333 77.0626 106.613 68.9757 106.613 59C106.613 49.0244 85.4333 40.9375 59.3066 40.9375C33.1799 40.9375 12 49.0244 12 59C12 68.9757 33.1799 77.0626 59.3066 77.0626Z" stroke="#61DAFB" stroke-width="5"/>
<path d="M43.664 68.0313C56.7274 90.6577 74.3207 104.957 82.9599 99.9687C91.5991 94.9809 88.0126 72.5951 74.9492 49.9687C61.8858 27.3423 44.2925 13.0434 35.6533 18.0313C27.0141 23.0191 30.6006 45.4049 43.664 68.0313Z" stroke="#61DAFB" stroke-width="5"/>
<path d="M43.664 49.9687C30.6007 72.5951 27.0141 94.9809 35.6533 99.9687C44.2925 104.957 61.8859 90.6576 74.9492 68.0312C88.0126 45.4048 91.5991 23.0191 82.9599 18.0312C74.3208 13.0434 56.7274 27.3423 43.664 49.9687Z" stroke="#61DAFB" stroke-width="5"/>
</svg>
