<svg width="118" height="118" viewBox="0 0 118 118" fill="none" xmlns="http://www.w3.org/2000/svg">
<rect width="118" height="118" rx="16" fill="#1E2235"/>
<path d="M105.082 83.7651C99.7453 86.5467 72.1 97.9135 66.2145 100.982C60.3289 104.051 57.0594 104.021 52.4098 101.798C47.7605 99.5757 18.341 87.6921 13.0414 85.1589C10.393 83.8932 9 82.8245 9 81.8151V71.7073C9 71.7073 47.3008 63.3694 53.484 61.151C59.6668 58.9327 61.8121 58.8526 67.0738 60.7799C72.3363 62.7081 103.8 68.3846 109 70.2893L108.998 80.2542C108.998 81.2534 107.798 82.3495 105.082 83.7651" fill="#912626"/>
<path d="M105.08 73.7178C99.7437 76.4983 72.0991 87.8654 66.2136 90.9334C60.3284 94.0025 57.0589 93.9725 52.4097 91.7498C47.7601 89.5287 18.3417 77.6432 13.0425 75.1116C7.74327 72.5784 7.63233 70.835 12.8378 68.7967C18.0433 66.7577 47.3003 55.2792 53.4843 53.0608C59.6671 50.8432 61.812 50.7624 67.0737 52.6905C72.3359 54.6178 99.8155 65.5557 105.015 67.46C110.217 69.3666 110.416 70.9366 105.08 73.7178" fill="#C6302B"/>
<path d="M105.082 67.4094C99.7453 70.1914 72.1 81.5578 66.2145 84.6274C60.3289 87.6949 57.0594 87.6653 52.4098 85.4426C47.7602 83.2211 18.341 71.3364 13.0414 68.8031C10.393 67.5375 9 66.4703 9 65.4606V55.3516C9 55.3516 47.3008 47.0141 53.484 44.7957C59.6668 42.5774 61.8121 42.4969 67.0738 44.4246C72.3367 46.3524 103.8 52.0278 109 53.9328L108.998 63.8989C108.998 64.8977 107.798 65.9938 105.082 67.4094Z" fill="#912626"/>
<path d="M105.08 57.3622C99.7437 60.1434 72.0991 71.5098 66.2136 74.579C60.3284 77.6469 57.0589 77.6169 52.4097 75.3942C47.7601 73.1731 18.3417 61.288 13.0425 58.7559C7.74327 56.2235 7.63233 54.4798 12.8378 52.4407C18.0433 50.4028 47.3007 38.9235 53.4843 36.7055C59.6671 34.4876 61.812 34.4071 67.0737 36.3348C72.3359 38.2622 99.8155 49.1993 105.015 51.1044C110.217 53.0106 110.416 54.5809 105.08 57.3622" fill="#C6302B"/>
<path d="M105.082 50.4477C99.7453 53.229 72.1 64.5962 66.2145 67.6657C60.3289 70.7337 57.0594 70.7036 52.4098 68.4809C47.7602 66.2594 18.341 54.3743 13.0414 51.8422C10.393 50.5754 9 49.5079 9 48.4993V38.3899C9 38.3899 47.3008 30.0527 53.484 27.8348C59.6668 25.616 61.8121 25.5363 67.0738 27.4637C72.3367 29.3914 103.8 35.0668 109 36.9719L108.998 46.9375C108.998 47.9356 107.798 49.0317 105.082 50.4477Z" fill="#912626"/>
<path d="M105.08 40.4008C99.7437 43.182 72.0992 54.5492 66.2136 57.6172C60.3285 60.6852 57.0589 60.6551 52.4097 58.4336C47.7605 56.211 18.3418 44.3266 13.0429 41.7941C7.74332 39.2621 7.63277 37.518 12.8379 35.4793C18.0433 33.441 47.3007 21.9633 53.4843 19.7445C59.6671 17.5262 61.8121 17.4465 67.0738 19.3742C72.3359 21.3019 99.8156 32.2391 105.015 34.1441C110.217 36.0488 110.416 37.6195 105.08 40.4008" fill="#C6302B"/>
<path d="M71.22 30.5664L62.6223 31.459L60.6977 36.0902L57.5891 30.9223L47.6613 30.0301L55.0692 27.3586L52.8465 23.2578L59.7821 25.9703L66.3203 23.8297L64.5532 28.0699L71.22 30.5664V30.5664ZM60.1844 53.0343L44.1387 46.3793L67.1309 42.85L60.1844 53.0343V53.0343ZM37.9383 33.1406C44.7254 33.1406 50.2273 35.2734 50.2273 37.9039C50.2273 40.5351 44.7254 42.6675 37.9383 42.6675C31.1511 42.6675 25.6492 40.5347 25.6492 37.9039C25.6492 35.2734 31.1511 33.1406 37.9383 33.1406Z" fill="white"/>
<path d="M81.3809 31.8324L94.9887 37.2098L81.3926 42.5821L81.3809 31.832" fill="#621B1C"/>
<path d="M66.3262 37.7871L81.3809 31.832L81.3926 42.5817L79.9164 43.159L66.3262 37.7871Z" fill="#9A2928"/>
</svg>
