<svg width="118" height="118" viewBox="0 0 118 118" fill="none" xmlns="http://www.w3.org/2000/svg">
<rect width="118" height="118" rx="16" fill="#1E2235"/>
<path d="M84.8862 9.02825C71.8844 8.41629 60.9513 17.8182 59.0858 30.2057C59.0121 30.7805 58.9011 31.3369 58.8089 31.8932C55.9094 47.322 42.4091 59.0049 26.1939 59.0049C20.4134 59.0049 14.9837 57.5215 10.2558 54.9251C9.68333 54.6098 9 55.0178 9 55.6668V58.9864V109H58.7905V71.5038C58.7905 64.6052 64.3676 59.0049 71.238 59.0049H83.6855C97.7769 59.0049 109.116 47.2664 108.562 32.9873C108.064 20.1362 97.6848 9.64021 84.8862 9.02825Z" fill="black"/>
</svg>
