<svg width="118" height="118" viewBox="0 0 118 118" fill="none" xmlns="http://www.w3.org/2000/svg">
<rect width="118" height="118" rx="16" fill="#1E2235"/>
<path d="M100.059 14.7469C98.6221 18.2396 96.7643 21.336 94.7083 24.1104C85.642 14.8708 72.9592 9 58.9635 9C31.4675 9 9 31.3436 9 58.9387C9 73.3555 15.168 86.3356 24.9526 95.501L26.8105 97.1606C35.4556 104.468 46.7017 108.902 58.9387 108.902C85.1961 108.902 106.821 88.4164 108.679 62.5553C110.165 49.9963 106.351 33.9198 100.059 14.7469ZM32.1858 95.9221C30.7491 97.7799 28.0738 97.9781 26.216 96.5413C24.3581 95.1046 24.16 92.4293 25.5967 90.5715C27.0334 88.7136 29.7087 88.5155 31.5665 89.9522C33.3253 91.3889 33.6225 94.0642 32.1858 95.9221ZM99.7616 80.985C87.4999 97.3588 61.1433 91.81 44.3485 92.6275C44.3485 92.6275 41.3512 92.8257 38.3786 93.2468C38.3786 93.2468 39.5181 92.7266 40.9548 92.2064C52.7954 88.0944 58.369 87.2521 65.5774 83.5612C79.0777 76.6501 92.5532 61.5149 95.2532 45.8595C90.1008 60.8956 74.4454 73.8757 60.2268 79.1272C50.4422 82.7438 32.8299 86.2365 32.8299 86.2365L32.1115 85.8154C20.1718 79.9447 19.7507 53.9845 41.5989 45.6366C51.1853 41.9209 60.2516 43.9769 70.6555 41.5246C81.6786 38.9484 94.4606 30.6996 99.5882 19.8993C105.31 37.3135 112.321 64.2893 99.7616 80.985Z" fill="#6CB52D"/>
<path d="M32.1858 95.9225C30.7491 97.7803 28.0738 97.9785 26.216 96.5418C24.3581 95.1051 24.16 92.4298 25.5967 90.5719C27.0334 88.7141 29.7087 88.5159 31.5666 89.9527C33.3253 91.3894 33.6226 94.0647 32.1858 95.9225Z" fill="#6CB52D"/>
</svg>
