<svg width="118" height="118" viewBox="0 0 118 118" fill="none" xmlns="http://www.w3.org/2000/svg">
<rect width="118" height="118" rx="16" fill="#1E2235"/>
<path d="M59.3956 106.267C33.1401 106.267 11.7788 84.9075 11.7788 58.651C11.7788 32.3944 33.1401 11.0352 59.3956 11.0352C85.6512 11.0352 107.012 32.3964 107.012 58.652C107.012 84.9075 85.6512 106.267 59.3956 106.267Z" fill="#85EA2D"/>
<path d="M58.7783 13.8015C83.7606 13.8015 104.011 34.0524 104.011 59.0347C104.011 84.0159 83.7606 104.268 58.7783 104.268C33.797 104.268 13.5452 84.0159 13.5452 59.0347C13.5452 34.0534 33.797 13.8015 58.7783 13.8015ZM58.7783 9.03516C31.2085 9.03516 8.77881 31.4648 8.77881 59.0347C8.77881 86.6045 31.2085 109.034 58.7783 109.034C86.3481 109.034 108.779 86.6045 108.779 59.0347C108.779 31.4648 86.3481 9.03516 58.7783 9.03516Z" fill="#173647"/>
<path d="M40.698 42.4238C40.5441 44.1348 40.755 45.9039 40.641 47.6339C40.5061 49.365 40.2942 51.076 39.9484 52.7871C39.4677 55.2287 37.9485 57.0747 35.8537 58.6129C39.9304 61.2664 40.3912 65.3801 40.66 69.5528C40.795 71.8026 40.737 74.0714 40.9679 76.3011C41.1408 78.0312 41.8134 78.4739 43.6024 78.5309C44.333 78.5499 45.0816 78.5309 45.9291 78.5309V83.876C40.642 84.7795 36.2774 83.2803 35.2 78.8008C34.8532 77.1667 34.6224 75.4936 34.5464 73.8015C34.4305 72.0135 34.6224 70.2255 34.4884 68.4375C34.1036 63.5342 33.469 61.8811 28.7786 61.6502V55.5555C29.1244 55.4786 29.4512 55.4206 29.797 55.3826C32.3736 55.2477 33.469 54.4591 34.0267 51.9215C34.2965 50.4993 34.4504 49.0571 34.5074 47.5959C34.7003 44.8085 34.6234 41.963 35.1031 39.1945C35.7757 35.2147 38.2374 33.2918 42.3331 33.0609C43.4865 33.003 44.6598 33.0609 45.9861 33.0609V38.5219C45.4284 38.5609 44.9477 38.6369 44.4479 38.6369C41.1218 38.5209 40.9479 39.6553 40.698 42.4238ZM47.1005 55.0748H47.0235C45.1006 54.9789 43.4475 56.478 43.3506 58.401C43.2546 60.3429 44.7538 61.997 46.6767 62.092H46.9076C48.8115 62.2079 50.4446 60.7457 50.5606 58.8427V58.6508C50.5996 56.7089 49.0424 55.1138 47.1005 55.0748ZM59.1559 55.0748C57.2909 55.0168 55.7327 56.478 55.6758 58.324C55.6758 58.44 55.6758 58.5359 55.6958 58.6508C55.6958 60.7467 57.118 62.093 59.2718 62.093C61.3866 62.093 62.7139 60.7087 62.7139 58.5359C62.6939 56.4401 61.2897 55.0558 59.1559 55.0748ZM71.5001 55.0748C69.5391 55.0358 67.904 56.594 67.8471 58.5549C67.8471 60.5158 69.4232 62.092 71.3841 62.092H71.4231C73.1921 62.3998 74.9802 60.6887 75.0961 58.6319C75.191 56.7279 73.461 55.0748 71.5001 55.0748ZM88.4387 55.3627C86.208 55.2667 85.0926 54.5171 84.5359 52.4013C84.1891 51.056 83.9782 49.6518 83.9012 48.2676C83.7473 45.691 83.7663 43.0954 83.5934 40.5188C83.1896 34.4052 78.7681 32.2714 72.3456 33.3278V38.6349C73.364 38.6349 74.1526 38.6349 74.9412 38.6538C76.3064 38.6728 77.3448 39.1925 77.4788 40.7117C77.6137 42.0959 77.6137 43.4992 77.7486 44.9034C78.0185 47.6919 78.1714 50.5173 78.6521 53.2668C79.0759 55.5356 80.633 57.2276 82.574 58.6119C79.1718 60.8996 78.1714 64.1678 77.9985 67.8408C77.9025 70.3594 77.8446 72.897 77.7106 75.4356C77.5947 77.7423 76.7882 78.4919 74.4614 78.5499C73.8078 78.5689 73.1731 78.6269 72.4425 78.6658V84.1068C73.8078 84.1068 75.0571 84.1838 76.3064 84.1068C80.1903 83.876 82.536 81.992 83.3056 78.2231C83.6324 76.1462 83.8243 74.0514 83.8823 71.9555C84.0162 70.0326 83.9982 68.0907 84.1901 66.1877C84.4779 63.2073 85.8432 61.977 88.8235 61.7851C89.1124 61.7461 89.3812 61.6892 89.6511 61.5932V55.4976C89.1504 55.4396 88.8035 55.3826 88.4387 55.3627Z" fill="#173647"/>
</svg>
