<svg width="118" height="118" viewBox="0 0 118 118" fill="none" xmlns="http://www.w3.org/2000/svg">
<rect width="118" height="118" rx="16" fill="#1E2235"/>
<path d="M12.0003 88.4676C11.852 88.3584 11.8032 88.1584 11.8836 87.9929L23.5756 63.9133L10.0891 47.8075C9.95324 47.6458 9.97525 47.4037 10.1379 47.2688L49.4738 14.4897C56.4727 8.65571 66.6057 8.49111 73.7959 14.0907C80.9831 19.6902 83.28 29.538 79.3036 37.7272L75.017 46.5577C76.689 45.9968 78.3437 45.4867 79.9801 45.0283L99.3869 39.4536C99.5983 39.3924 99.8185 39.5225 99.8663 39.7378L107.991 75.852C108.04 76.0752 107.889 76.2934 107.661 76.322C105.086 76.6465 91.0357 78.6648 73.5432 86.0138C53.7241 94.3379 40.6452 106.169 38.7924 107.899C38.6555 108.027 38.4546 108.032 38.3044 107.921L12.0003 88.4676Z" fill="url(#paint0_linear_133_12692)"/>
<path d="M90 28H28V90H90V28Z" fill="black"/>
<path d="M42.9812 49.7497L35 36H39.5829L44.5247 44.7845L45.1019 46.0416L45.6789 44.7688L50.4954 36H55L47.1432 49.7187V58H42.9812V49.7497Z" fill="white"/>
<path d="M61 78H36V82H61V78Z" fill="white"/>
<path d="M75 36H56.0009L56 39.8659H63.2073V58H67.8262V39.8659H75V36Z" fill="white"/>
<defs>
<linearGradient id="paint0_linear_133_12692" x1="9.84318" y1="58.9999" x2="108.081" y2="58.9999" gradientUnits="userSpaceOnUse">
<stop stop-color="#FB43FF"/>
<stop offset="0.97" stop-color="#FB406D"/>
</linearGradient>
</defs>
</svg>
